<svg xmlns="http://www.w3.org/2000/svg" id="Layer_4" width="1380" height="430" viewBox="0 0 1380 430" preserveAspectRatio="xMidYMid slice" style="max-height:430px;max-width:1380px">
  <defs>
    <style>.cls-1{fill:url(#linear-gradient);}.cls-2{fill:none;}.cls-3{fill:#7ab9ea;}</style>
    <linearGradient id="linear-gradient" x1="690" y1="2" x2="690" y2="432" gradientTransform="matrix(1, 0, 0, -1, 0, 432)" gradientUnits="userSpaceOnUse">
        <stop offset="0.11" stop-color="#fff"/><stop offset="1" stop-color="#3394de"/>
    </linearGradient>
  </defs>
  <path class="cls-1" d="M0,0H1380V430H0Z"/>
  <path class="cls-2" d="M192.67,379.18h8.2v8.2h-8.2Zm236.83-90.9h8v8h-8ZM180.17,379.1h8.2v8.2h-8.2Zm13.48,37.3h8.43v8.43h-8.43ZM206.17,379h8.2v8.22h-8.2Zm-26-21.86h8v8h-8Zm.22,36.36h8.2v8.22h-8.2ZM127.46,281.67l11.24,7-.3-12.27Zm-13,7,20.9.1-10-5.66Zm79.12,68.5h8v8h-8Zm-13.46-11.58h8v8h-8Zm13.46,0h8v8h-8Zm12.57,70.84h8.43v8.43h-8.43Zm130.93-92.7,11.25,7-.3-12.27Zm-13,7,20.87.1-10-5.66Zm-199.26,31H133v8.2h-8.2ZM324.4,380.15h8.43v8.43H324.4ZM427,335.65h9.8v9.8H427ZM267.53,379.7H276v8.43h-8.43ZM442.65,273.9h8v8h-7.9ZM280.55,393.82H289v8.43h-8.44ZM323.5,318.9v9.84l8.92-4.7Zm20.6-.8-18.3.1,8.42,4.3Zm-32.2,62h8.43v8.43H311.9Zm-31.34-.5H289v8.43h-8.44ZM40.86,265.48h8v8h-8Zm3,37.42h8v8h-8ZM31.5,347.43h8.22v8.2h-8.2Zm-3.05,59.93h9.33v9.33H28.45Zm16.72-45.68h8.2v8.2h-8.2ZM45,347.26h8.22v8.2H45Zm-31.47-67.9h8v7.95h-8ZM30.76,302.7h8v8h-8ZM46.1,394h9.34v9.33H46.1ZM27.2,265.68h8v8H27.2ZM28.1,394h9.34v9.33H28.1ZM13.53,265.88h8v8h-8Zm111.14,81.38h8.2v8.2h-8.2ZM110,316.88h8v8h-8Zm-.4-14.48h8v8h-8ZM96.78,393.7h9.33V403h-9.3Zm27.92-77h8v8h-8ZM110.1,408h9.34v9.33h-9.33Zm24.4-131.95-18.32.1,8.4,4.3Zm-38.36,71h8V355h-8Zm0-44.68h8v8h-8Zm17.74-25.52v9.84l8.9-4.7Zm-17.74,40h8v8h-8ZM78.78,393.7h9.33V403h-9.3ZM429.2,273.9h7.95v8h-8ZM1240.64,342h9.88v9.88h-9.88Zm0-19.65h9.88v9.87h-9.88Zm17.64,95.7h10v10h-10Zm1.64-76h9.88v9.88h-9.88Zm-1.82,55.38h10v10h-10Zm-19,0h10v10h-10Zm-54.62-17.2h8.43v-8.43h-8.4Zm-13-21.7h8.43v8.42h-8.43Zm115.82-69.16V301l10.62-5.6Zm24.56-1-21.82.1,10,5.14Zm-127.34,70.4h8.43v8.42h-8.4ZM1341.6,417.2h10v10h-10Zm-204.16-36.84h9.33v9.33h-9.33ZM1322.6,417.2h10v10h-10ZM1342,361.86h9.88v9.88H1342Zm19.28,18h9.88v9.87h-9.88Zm-65.12-58.08H1306v9.87h-9.8Zm-19.28,0h9.88v9.87h-9.88Zm.43,96.25h10v10h-10Zm45.42-38.18h9.88v9.88h-9.88ZM1288,303.3l24.9.12-11.9-6.74Zm15.48-8.3,13.4,8.3-.34-14.62Zm-313.5,34h8.27v8.26H990Zm-364.3,1.36h8v8h-8Zm89-1h8.57v8.56h-8.5Zm15.2-.12h8.57v8.57h-8.5Zm15.1,0h8.56v8.57h-8.57Zm-132.77,1.12h8v8h-8Zm-91.37.16h9.8v9.8h-9.8Zm-49.25-30.34h9.8v8.57h-9.8Zm0,15.9h9.8v8h-9.8Zm17.75-15.9h9.8v8.57h-9.8Zm349.6,28.7h8v8h-8Zm283.54,51.5h9.33v9.33h-9.33ZM503.2,330.5H513v9.8h-9.8Zm567.23-15.9h8.26v8.26h-8.3Zm-95.17,14.68h8.26v8.26h-8.26ZM444.6,335.65h9.8v9.8h-9.8Zm407.77-6.78h8v8h-8Zm218.06-29h8.26v8.27h-8.3ZM864.88,329h7.75v7.75h-7.75ZM938,307.25h8v8h-8Zm148-7.35h8.25v8.27H1086ZM925.8,319.5h8v7.95h-8Zm0-12.25h8v8h-8Z"/>
  <path class="cls-3" d="M1380,265.7l-16,.2-.25,83.3h-30l.5-16-10.47.3V303.3h-3.6V288.7h3.7V263.1l5.7.24-27-20.34-28.1,20.1h5.5v25.6h3.7v14.62H1233l-.2,6-.12,3.57-8.1.46-1,85.34h-19.14l-.1-50.68-24.6-.07-.2-22.1-55,.35V277l-50.5-.76-.6,13.55-13.4.3.4,56.65h-14.6V334.88l-10.2-.13V317.6l-40,.6V290.06h-4.9v28.45l-22.64-.3v16.9h-13.2l.6-37.9-52-.6v-31.9h-3.7l-.1,62.9-8.13.2-.1-11.3-13.8-.1-23.73-12.1-26.6,11.6H814l-.3,20.9h-16v-20.4l-22.94-.2.15,9.4-13.9.2.2-26.6h-17.7v-5.5h-7.9v-17.8l-3.3-.1-.3,17.9h-8.6v5.5h-17.9l.1,38.6h-25l.2-24.8-75.25-.3v12.2l-20.5-.3-.12,6.8-38.3-.3-.43-31.5-34.3-.1.2-14.7-46.5-.2v-17.8l-17.8-13.87V263H438V252.8l-20.6,15.4v38.35l-45.4-.2v-9.2h-2.44v11.6H364l.12,21.5-13,.46v-12.3h3.05v-21.5l4.8.2-22.62-17L312.77,297h4.6v21.5h3.07v12.3h-18.7l-.3,12.38H268.78l-.27-22.7h-19.1l-.5,12.27h-17.8v-4.9H225v-11h-4.3v-22.7h-4.27v22.65H204.8v11H195l-.4,5.82H166.18l-.65,29.7h-12l.1-74.8h-12.1v-12.2h3v-21.4l4.8.2-22.63-17-23.57,16.8h4.6v21.46h3.07v12.27H79.7l-.26,48.7-11.1.2-.07-88.1H53.4v-32.2H48.1v32.2H41.5v-31.8H36.1v31.9H0V430H1380ZM38.72,302.7v8h-8v-8ZM21.48,287.3h-8v-7.95h8Zm0-13.46h-8v-7.95h8v7.95Zm5.7-8.16h8v8H27.2v-8ZM28.11,394h9.4v9.33h-9.3V394Zm9.7,22.67h-9.3v-9.34h9.4v9.34Zm2-61.06h-8.2v-8.2h8.2ZM41,265.48h8v7.95H41Zm3,37.42h8v8H44v-8Zm1.2,44.4h8.2v8.2h-8.2Zm.2,14.4h8.2v8.2h-8.2Zm10.3,41.7h-9.3v-9.3h9.4v9.4Zm79.1-127.3-9.9,4.4-8.4-4.3Zm-20.6.8,8.9,5.2-8.9,4.7v-9.9Zm-17.8,25.5h8v8h-8v-8Zm0,14.5h8v8h-8v-8Zm-8,86.2H79v-9.32h9.34v9.34Zm8.1-56h8v7.9h-8v-7.9Zm10,55.9H97v-9.32h9.36V403ZM110,302.43h8v8h-8v-8Zm.4,14.5h7.9v7.95h-8v-8Zm9.5,100.47h-9.32V408h9.3v9.33Zm13.3-70.1v8.2H125v-8.2h8.21ZM125,324.66v-8h8v8h-8Zm8.35,45.25H125v-8.2h8.2v8.2Zm-18.55-81.2,10.9-5.5,10,5.7-20.9-.1Zm13-6.9,10.94-5.3.24,12.3-11.2-6.9Zm66.1,63.9h8v8h-7.93v-7.9Zm0,11.6h8v8h-7.93v-7.9Zm-13.48-11.5h7.94v8h-8v-7.9Zm0,11.6h7.94v8h-8v-7.9Zm0,22h8.2v8.2h-8.2Zm8.36,22.6h-8.2v-8.2h8.2Zm4.1-22.5h8.2v8.2h-8.2Zm9.4,45.67h-8.48v-8.43h8.46v8.4Zm4.1-45.8h8.2v8.2h-8.2v-8.2Zm8.4,45.8h-8.48v-8.42h8.46v8.4Zm61.4-36.7h-8.5V380h8.4v8.4Zm13,14.13h-8.48V394h8.3v8.44Zm0-14.17h-8.48V380h8.3v8.4Zm55.1-70-9.9,4.4-8.4-4.3Zm-20.6.8,8.9,5.15-8.9,4.7v-9.85Zm.62,11.76,10.9-5.5,9.8,5.6-20.9-.1Zm13-7,10.9-5.3.3,12.2-11.3-7Zm92.1-49.8h7.9v7.9h-8v-8Zm7.6,71.5h-10v-9.8h9.8v9.8Zm.6-49.2h-8v-8h8v8Zm5.2-22.33h7.9v7.9H442.8v-8Zm11.7,71.54h-9.8V336h9.8Zm27-21.54h-9.8v-7.95h9.8v7.95Zm0-15.3h-9.8v-8.56h9.8Zm17.74,0h-9.8v-8.56h9.8ZM513,340.3h-9.8v-9.8H513Zm17.6,0h-9.8v-9.8h9.8Zm89.52-2h-8v-8h8v8Zm13.47,0h-8v-8h7.9v8Zm89.6-.4h-8.6v-8.57h8.5v8.56Zm15.2-.1h-8.6v-8.58h8.5v8.57Zm15.1,0h-8.6v-8.58h8.5v8.57Zm93.3-1h-8v-8h7.9v8Zm13.4,0h-8v-8h7.9v8Zm12.3-.06h-7.8V329h7.7v7.75Zm61.1-9.32h-8v-8h7.9v7.9Zm0-12.24h-8v-7.9h7.9v8Zm12.2,0H938v-7.9h8v8Zm37.5,22.4H975v-8.2h8.25v8.3Zm14.7-.3h-8.3V329H998v8.31Zm80.5-14.4h-8.3v-8.2h8.2V323Zm0-14.7h-8.3V300h8.2v8.27Zm15.6,0h-8.2V300h8.2v8.21Zm37.4,81.6h-9.4v-9.3h9.3v9.4Zm15,0h-9.4v-9.3h9.3v9.4Zm33.1-22.8h-8.5v-8.4h8.4V367Zm13,12.6v.7h-8.4v-8.4h8.4v7.7Zm0-12.3h-8.4v-8.4h8.4v8.4Zm118.9-78.8-11.8,5.2-10-5.1Zm-24.6,1,10.6,6.1-10.68,5.6v-11.8Zm-38.1,118h-10v-10h10Zm1.4-55.5h-9.9V342h9.85v9.9Zm0-19.6h-9.9v-9.8h9.85v9.9Zm7.6,65.2h10v10h-10Zm10.14,30.6h-10v-10h10Zm1.52-76.1h-9.9v-10h9.9v10Zm7-30.1h9.86v9.9h-9.85V322Zm10.5,106.2h-10v-10h10Zm18.7-96.36h-9.9V322h9.9v9.87Zm-18-28.34,13-6.6,11.9,6.7-24.85-.1Zm15.5-8.3,13.1-6.3.33,14.6-13.4-8.3Zm19.3,84.8h9.86v9.87h-9.9V380Zm9.9,47.34h-10v-10h10Zm19,0h-10v-10h10Zm.24-55.43h-9.8V362h9.9v9.9Zm9.4,18V380h9.9v9.9H1361Z"/>
</svg>
