<svg xmlns="http://www.w3.org/2000/svg" xmlns:xlink="http://www.w3.org/1999/xlink" viewBox="0 0 261.99 134.04"><defs><style>.cls-1,.cls-23,.cls-43,.cls-48{fill:none;}.cls-1,.cls-3,.cls-4,.cls-5,.cls-6,.cls-7,.cls-8{clip-rule:evenodd;}.cls-2,.cls-3,.cls-4,.cls-44,.cls-5,.cls-6,.cls-7,.cls-8{fill:#c4841e;}.cls-3{clip-path:url(#clip-path);}.cls-4{clip-path:url(#clip-path-2);}.cls-5{clip-path:url(#clip-path-3);}.cls-6{clip-path:url(#clip-path-4);}.cls-7{clip-path:url(#clip-path-5);}.cls-8{clip-path:url(#clip-path-6);}.cls-9{isolation:isolate;}.cls-10,.cls-12,.cls-13,.cls-15{fill:#078cea;}.cls-10,.cls-35{opacity:0.4;}.cls-11{fill:#c7e0f7;}.cls-12,.cls-14,.cls-34,.cls-39{opacity:0.3;}.cls-13,.cls-18,.cls-19,.cls-20,.cls-28,.cls-36,.cls-41{opacity:0.2;}.cls-16{fill:#fff;}.cls-17{fill:#163f5e;}.cls-18{fill:#3394de;}.cls-19,.cls-21,.cls-30,.cls-41,.cls-46{fill:#16422f;}.cls-22{opacity:0.1;}.cls-23{stroke:#163f5e;stroke-width:4.64px;}.cls-23,.cls-43,.cls-48{stroke-miterlimit:10;}.cls-24{fill:#1ed86e;}.cls-25{fill:#c5d1e3;}.cls-26{opacity:0.15;}.cls-26,.cls-28,.cls-30,.cls-32,.cls-33,.cls-34,.cls-35,.cls-36,.cls-39,.cls-46{mix-blend-mode:multiply;}.cls-27{fill:#2bbf4e;}.cls-29,.cls-32,.cls-34,.cls-35,.cls-36{fill:#432a16;}.cls-30,.cls-46{opacity:0.08;}.cls-31{opacity:0.7;}.cls-32,.cls-33{opacity:0.5;}.cls-37{fill:#25893d;}.cls-38{fill:#fcbd00;}.cls-38,.cls-40,.cls-41,.cls-44,.cls-46{fill-rule:evenodd;}.cls-40{fill:#d39424;}.cls-42{clip-path:url(#clip-path-7);}.cls-43,.cls-48{stroke:#fcbd00;}.cls-43{stroke-width:0.22px;}.cls-45{clip-path:url(#clip-path-8);}.cls-47{clip-path:url(#clip-path-9);}.cls-48{stroke-width:0.23px;}.cls-49{clip-path:url(#clip-path-10);}</style><clipPath id="clip-path"><rect class="cls-2" x="101.56" y="86.02" width="0.73" height="1.13" transform="translate(-20.87 139.57) rotate(-63.69)"/></clipPath><clipPath id="clip-path-2"><path class="cls-3" d="M101.26,85.85a.36.36,0,0,1,.21-.19.34.34,0,0,1,.28,0l1,.5a.32.32,0,0,1,.18.21.39.39,0,0,1,0,.28l-.33.65,1,.5-2.15,4.33L97.8,90.34,99.94,86l1,.49Z"/></clipPath><clipPath id="clip-path-3"><path class="cls-4" d="M103.08,92.14a.73.73,0,0,1-.42.37.75.75,0,0,1-.57,0l-.33-.16L103.9,88l.34.17a.66.66,0,0,1,.23.18.77.77,0,0,1,.14.25.65.65,0,0,1,0,.28.68.68,0,0,1-.07.28Z"/></clipPath><clipPath id="clip-path-4"><rect class="cls-2" x="80.73" y="39.97" width="1.17" height="0.76"/></clipPath><clipPath id="clip-path-5"><path class="cls-6" d="M80.36,40a.38.38,0,0,1,.38-.39h1.17a.36.36,0,0,1,.26.11.37.37,0,0,1,.11.28v.76h1.17v5H79.2v-5h1.16Z"/></clipPath><clipPath id="clip-path-6"><path class="cls-7" d="M85,45a.73.73,0,0,1-.22.54.78.78,0,0,1-.55.23h-.38v-5h.38a.73.73,0,0,1,.3.06.7.7,0,0,1,.25.17.78.78,0,0,1,.16.24.8.8,0,0,1,.06.3Z"/></clipPath><clipPath id="clip-path-7"><path class="cls-1" d="M107.21,87.56c-1.16-3.44-13.21.64-12,4.07a6.36,6.36,0,1,0,12-4.07Z"/></clipPath><clipPath id="clip-path-8"><path class="cls-5" d="M98.73,85.66a.68.68,0,0,1,.56,0l.33.17-2.14,4.33L97.15,90a.7.7,0,0,1-.37-.42.71.71,0,0,1,0-.57l1.49-3A.72.72,0,0,1,98.73,85.66Z"/></clipPath><clipPath id="clip-path-9"><path class="cls-1" d="M86.7,38.81c-2.67-2.67-12,6.7-9.37,9.37a6.63,6.63,0,1,0,9.37-9.37Z"/></clipPath><clipPath id="clip-path-10"><path class="cls-8" d="M77.9,41a.74.74,0,0,1,.55-.23h.38v5h-.38a.78.78,0,0,1-.55-.23.73.73,0,0,1-.22-.54V41.5A.73.73,0,0,1,77.9,41Z"/></clipPath></defs><title>booking-options</title><g class="cls-9"><g id="Layer_2" data-name="Layer 2"><g id="WIREFRAME"><rect class="cls-10" x="2.65" y="48.74" width="63.02" height="75.63" transform="translate(-6.17 2.7) rotate(-4.15)"/><rect class="cls-11" x="7.97" y="55.12" width="52.39" height="62.88" transform="translate(-6.17 2.7) rotate(-4.15)"/><path class="cls-12" d="M62.86,46.57l-10.12.73c-3.26,19.44-9.69,58.88-8.62,61.37.9,2.09,14.15,6,23.87,8.7Z"/><polygon class="cls-11" points="45.35 59.95 19.32 62.75 16.57 49.92 46.29 47.77 45.35 59.95"/><polygon class="cls-13" points="45.35 59.95 19.32 62.75 16.57 49.92 46.29 47.77 45.35 59.95"/><polygon class="cls-12" points="42.9 56.35 21.22 58.83 19.65 49.7 43.21 47.99 42.9 56.35"/><g class="cls-14"><path class="cls-15" d="M27.89,77.56a1.82,1.82,0,0,1-.13-3.64L50.19,72.3a1.81,1.81,0,1,1,.26,3.62L28,77.55Z"/></g><g class="cls-14"><path class="cls-15" d="M28.93,91.94a1.82,1.82,0,0,1-.13-3.63l22.43-1.63a1.82,1.82,0,0,1,.27,3.63L29.07,91.93Z"/></g><g class="cls-14"><path class="cls-15" d="M30,106.07a1.82,1.82,0,0,1-.13-3.63l22.43-1.63a1.82,1.82,0,0,1,.26,3.63l-22.43,1.62Z"/></g><path class="cls-12" d="M15,75.48,16.7,78a10.13,10.13,0,0,1,3-7.76l3.6,2.09a15.59,15.59,0,0,0-5.95,8.3L13.2,78.16Z"/><path class="cls-12" d="M16,89.08l1.67,2.51a10.12,10.12,0,0,1,3-7.76l3.6,2.09a15.48,15.48,0,0,0-5.95,8.29l-4.18-2.45Z"/><path class="cls-12" d="M17.08,103.59l1.66,2.51a10.12,10.12,0,0,1,3-7.76l3.6,2.09a15.48,15.48,0,0,0-5.95,8.29l-4.18-2.45Z"/><path class="cls-11" d="M22.22,48.81,22.74,56l18.32-1.33-.49-6.79C39.45,32.54,21.22,35,22.22,48.81Zm3.46-1.73c-.59-8,10.55-9.54,11.2-.55L37,48.44l-11.19.81Z"/><path class="cls-11" d="M22.22,48.81,22.74,56l18.32-1.33-.49-6.79C39.45,32.54,21.22,35,22.22,48.81Zm3.46-1.73c-.59-8,10.55-9.54,11.2-.55L37,48.44l-11.19.81Z"/><path class="cls-12" d="M261.92,114.4c.72,1.17-4.39,8.35-6,8.55S237,109,237,109l5.73-6S261,112.91,261.92,114.4Z"/><path class="cls-16" d="M261.92,114.4c.72,1.17-4.39,8.35-6,8.55S237,109,237,109l5.73-6S261,112.91,261.92,114.4Z"/><path class="cls-12" d="M261.92,114.4c.72,1.17-4.39,8.35-6,8.55S237,109,237,109l5.73-6S261,112.91,261.92,114.4Z"/><path class="cls-12" d="M261.92,114.4c.72,1.17-4.39,8.35-6,8.55S237,109,237,109l5.73-6S261,112.91,261.92,114.4Z"/><polygon class="cls-12" points="253.01 108.89 246.32 116.1 236.97 108.96 242.71 102.95 253.01 108.89"/><path class="cls-16" d="M210.6,54.17a34.44,34.44,0,1,0,38.21,30.21A34.44,34.44,0,0,0,210.6,54.17Zm7.19,61.45a27.42,27.42,0,1,1,24.05-30.43A27.42,27.42,0,0,1,217.79,115.62Z"/><path class="cls-12" d="M210.6,54.17a34.44,34.44,0,1,0,38.21,30.21A34.44,34.44,0,0,0,210.6,54.17Zm7.19,61.45a27.42,27.42,0,1,1,24.05-30.43A27.42,27.42,0,0,1,217.79,115.62Z"/><path class="cls-12" d="M210.6,54.17a34.44,34.44,0,1,0,38.21,30.21A34.44,34.44,0,0,0,210.6,54.17Zm7.19,61.45a27.42,27.42,0,1,1,24.05-30.43A27.42,27.42,0,0,1,217.79,115.62Z"/><circle class="cls-11" cx="214.61" cy="88.38" r="27.42"/><path class="cls-12" d="M198.16,58.12A34.45,34.45,0,0,0,192,114.38c2.15,1.86,12.52-58.95,12.52-58.95Z"/><g class="cls-14"><path class="cls-15" d="M229.54,85.29c-.16-.85-2.1-1.05-2.89-.81l-8.72,2.59-9.58-5-1.12,1.16,3.87,5.85-8.8,2.74c-.8.23,4.95,1.5,6.29,1.34,0,0,10.46-3,15.08-4.4l3.57-1.06c.8-.24,2.47-1.53,2.3-2.45"/><polyline class="cls-15" points="200.93 88.17 200.11 88.95 202.11 91.72 205.19 90.65 200.93 88.17"/></g><path class="cls-17" d="M133.25,113.47l-2,12.61a3.16,3.16,0,0,1-3.47,2.76L106,125.42a3.14,3.14,0,0,1-2.4-3.69l2-12.61-5.67-.89L97.28,125c-.34,2.13.93,3.68,3.25,4L131.9,134c2.33.37,4.39-.65,4.72-2.78l2.63-16.77Z"/><path class="cls-17" d="M180.26,128.41,55.61,108.83a5.35,5.35,0,0,1-4.38-6.16L64.09,20.83,199.18,42.06l-12.86,81.83A5.34,5.34,0,0,1,180.26,128.41Z"/><path class="cls-18" d="M179.17,121.81,58.62,102.87a2.32,2.32,0,0,1-1.89-2.67L69.08,21.62,194.19,41.28l-12.34,78.53A2.36,2.36,0,0,1,179.17,121.81Z"/><path class="cls-11" d="M176.06,117.21,63.69,99.56a2.12,2.12,0,0,1-1.77-2.43L73.11,25.87,189.73,44.2l-11.19,71.21A2.16,2.16,0,0,1,176.06,117.21Z"/><path class="cls-19" d="M136.43,64c1.66-9.42,3.09-17.48,3.48-19.63,1-5.59-5.74-6.41-6.68-1.2-.36,2-1.82,10.05-3.54,19.53a9,9,0,0,0-3,16.41L123,99.74c-1.06,5.89,5.93,6.53,6.89,1.24.38-2.12,1.92-10.81,3.69-20.8A9,9,0,0,0,136.43,64Z"/><path class="cls-15" d="M132.19,43.12c.94-5.21,7.69-4.39,6.68,1.2s-9.08,51.38-10,56.66-8,4.65-6.88-1.24Z"/><path class="cls-19" d="M135.82,62.16a10.61,10.61,0,0,0-3.18-1.1,10.87,10.87,0,0,0-3.73,0l-3.64,20.14a10.64,10.64,0,0,0,6.86,1.37Z"/><circle class="cls-15" cx="130.45" cy="71.45" r="8.98"/><circle class="cls-16" cx="130.45" cy="71.45" r="6.85"/><g class="cls-20"><path class="cls-21" d="M130.44,65.21h0a6.06,6.06,0,0,1,1.12.1,6.23,6.23,0,0,1,5,7.25,6.22,6.22,0,0,1-6.13,5.13,6.94,6.94,0,0,1-1.11-.1,6.24,6.24,0,0,1,1.1-12.38m0-.61a6.84,6.84,0,0,0-1.21,13.58,6.38,6.38,0,0,0,1.22.12,6.85,6.85,0,0,0,1.21-13.59,6.36,6.36,0,0,0-1.22-.11Z"/></g><rect class="cls-19" x="127.05" y="88.59" width="0.78" height="2.03" rx="0.35" ry="0.35" transform="translate(236.89 200.46) rotate(-169.75)"/><rect class="cls-19" x="126.33" y="92.59" width="0.78" height="2.03" rx="0.35" ry="0.35" transform="translate(234.75 208.26) rotate(-169.75)"/><circle class="cls-16" cx="130.45" cy="71.45" r="6.85"/><g class="cls-20"><path class="cls-21" d="M130.44,65.41h0a5.64,5.64,0,0,1,1.08.1,6,6,0,0,1,4.86,7,6,6,0,0,1-5.93,5,6.56,6.56,0,0,1-1.08-.09,6,6,0,0,1,1.07-12m0-.81a6.84,6.84,0,0,0-1.21,13.58,6.38,6.38,0,0,0,1.22.12,6.85,6.85,0,0,0,1.21-13.59,6.36,6.36,0,0,0-1.22-.11Z"/></g><rect class="cls-19" x="131.63" y="50.93" width="3.99" height="6.82" transform="translate(56.36 176.16) rotate(-79.75)"/><rect class="cls-15" x="129.43" y="53.22" width="8.53" height="2.3" transform="translate(255.57 131.67) rotate(-169.75)"/><polygon class="cls-15" points="134.43 72.1 130.82 71.45 131.75 66.28 130.97 66.14 129.88 72.13 130.67 72.27 130.67 72.27 134.28 72.92 134.43 72.1"/><g class="cls-22"><polygon class="cls-17" points="185.84 68.99 71.92 33.44 73.11 25.87 189.73 44.2 185.84 68.99"/></g><path class="cls-17" d="M205.32,46.65l-149-23.41a2.13,2.13,0,0,1-1.75-2.46L56.84,6.59a2.12,2.12,0,0,1,2.42-1.8l149,23.4A2.14,2.14,0,0,1,210,30.65l-2.23,14.19A2.14,2.14,0,0,1,205.32,46.65Z"/><path class="cls-18" d="M206,42.64,57,19.23a1.93,1.93,0,0,1-1.82-2L56.91,6.15a1.93,1.93,0,0,1,2.34-1.34l149,23.4a1.93,1.93,0,0,1,1.82,2L208.3,41.3A1.94,1.94,0,0,1,206,42.64Z"/><line class="cls-23" x1="119" y1="21.19" x2="149.09" y2="24.74"/><path class="cls-24" d="M182.54,17.12l5.16,9.13S187.36,10.3,200.18,0l12,8.19s-16.57,9.09-22.81,27.38L175.45,26Z"/><path class="cls-19" d="M150.8,53.2c.89-1.05,31.92,2.07,32.85,2.85s-7.1,54.87-8.46,55.49-31.57-4.26-32.44-5.44S149.92,54.25,150.8,53.2Z"/><path class="cls-25" d="M149.54,49.13c.88-1.09,31.92,3.2,32.86,4s-8.1,55.47-9.46,56.1-30.93-5-31.81-6.21S148.66,50.21,149.54,49.13Z"/><g class="cls-22"><path class="cls-17" d="M182.4,53.14c1,2.33-8.1,55.47-9.46,56.1s-30.93-5-31.81-6.21l30.1,4.92S181.38,50.81,182.4,53.14Z"/></g><path class="cls-16" d="M151.92,55l25.85,3.11S170,104,169.52,104.31s-23.9-3.78-24.47-4.66S151.92,55,151.92,55Z"/><circle class="cls-25" cx="156.6" cy="99.47" r="4.16"/><circle class="cls-16" cx="156.6" cy="99.47" r="2.85"/><circle class="cls-15" cx="159.5" cy="81.55" r="1.71"/><path class="cls-15" d="M155.86,78.18s5.66-3.64,8.41,2.5l2.92-2.05c-1-3-5.8-7.35-13-3"/><path class="cls-15" d="M152.88,73.77s5-3.36,9.94-2c2.28.64,4.54,2.28,6.28,5.73l3.1-2.08c-1.41-2.8-4.84-6.19-7.75-7.23-4-1.44-9.33-.45-13.31,3.09"/><g class="cls-20"><circle class="cls-17" cx="159.95" cy="53.02" r="1.13"/></g><g class="cls-20"><rect class="cls-17" x="164.69" y="50.38" width="1.32" height="6.46" transform="translate(97.02 213.45) rotate(-84.82)"/></g><polygon class="cls-15" points="151.92 54.96 177.77 58.07 176.98 64 150.95 60.22 151.92 54.96"/><g class="cls-26"><path class="cls-21" d="M114.22,62c.37,1.16,3.22,22.42,2.9,22.9-1,1.45-40.64,4.34-41.63,3.59l.11-4.14c.79-.79,36.5-22.27,36.5-22.27S114.11,61.66,114.22,62Z"/></g><path class="cls-27" d="M71.93,65.77c-.49.51.92,20,1.76,20.73s40.28-2.15,41.13-3.06S113.9,61.7,112.89,61,72.43,65.27,71.93,65.77Z"/><g class="cls-28"><path class="cls-29" d="M107.26,68.17l.24-.58a.18.18,0,0,1,.25-.13,3.38,3.38,0,0,0,.88.32l-.15-1.15c-.65-.16-1.53-.55-1.65-1.4a1.45,1.45,0,0,1,1.26-1.59l0-.22a.15.15,0,0,1,.12-.16h.12a.13.13,0,0,1,.15.11l0,.24a2.65,2.65,0,0,1,1.38.34.19.19,0,0,1,.08.22l-.33.65a.13.13,0,0,1-.19.06,7.17,7.17,0,0,0-.81-.31l.13,1c.58.14,1.59.49,1.72,1.45a1.54,1.54,0,0,1-1.32,1.66l.1.73a.14.14,0,0,1-.12.15H109a.13.13,0,0,1-.15-.11l-.1-.73a2.14,2.14,0,0,1-1.43-.36C107.24,68.3,107.21,68.28,107.26,68.17Zm.92-3.65a.43.43,0,0,0-.34.42c0,.21.16.37.46.5Zm1.18,2.78a.72.72,0,0,0-.45-.54l.14,1A.46.46,0,0,0,109.36,67.3Z"/></g><g class="cls-28"><path class="cls-29" d="M108.73,81l.27-.49c.06-.1.16-.15.25-.09a3.46,3.46,0,0,0,.74.38v-1c-.56-.21-1.3-.66-1.31-1.42A1.28,1.28,0,0,1,110,77.1v-.21a.12.12,0,0,1,.12-.12h.1a.12.12,0,0,1,.13.12v.21a2.43,2.43,0,0,1,1.19.45c.08,0,.06.16,0,.21l-.37.54a.12.12,0,0,1-.17,0,5.1,5.1,0,0,0-.68-.37v.9c.49.19,1.35.61,1.36,1.48a1.37,1.37,0,0,1-1.35,1.32v.67a.12.12,0,0,1-.12.11h-.11a.13.13,0,0,1-.13-.11v-.66a1.9,1.9,0,0,1-1.23-.48C108.7,81.14,108.68,81.12,108.73,81ZM110,77.89a.37.37,0,0,0-.35.33c0,.19.1.35.36.5Zm.75,2.59a.69.69,0,0,0-.35-.53v.93A.41.41,0,0,0,110.7,80.48Z"/></g><g class="cls-28"><path class="cls-29" d="M74.93,72l.21-.54c0-.11.13-.17.23-.12a3.37,3.37,0,0,0,.81.27l-.15-1c-.6-.14-1.43-.48-1.55-1.26a1.32,1.32,0,0,1,1.12-1.49l0-.21a.12.12,0,0,1,.11-.14l.11,0a.12.12,0,0,1,.14.11l0,.21a2.43,2.43,0,0,1,1.29.29c.08,0,.09.15.07.2l-.29.6a.13.13,0,0,1-.17.07,6.54,6.54,0,0,0-.76-.28l.14.92c.54.12,1.48.42,1.62,1.31a1.42,1.42,0,0,1-1.18,1.55l.1.68a.13.13,0,0,1-.1.14h-.11a.13.13,0,0,1-.15-.1l-.1-.67a2,2,0,0,1-1.33-.3C74.92,72.09,74.89,72.07,74.93,72Zm.77-3.38a.38.38,0,0,0-.3.39c0,.19.15.34.44.45Zm1.15,2.54a.72.72,0,0,0-.43-.5l.15,1A.42.42,0,0,0,76.85,71.13Z"/></g><g class="cls-28"><path class="cls-29" d="M75.92,84l.22-.51c0-.11.13-.17.23-.12a3.29,3.29,0,0,0,.78.29l-.12-1c-.58-.16-1.37-.52-1.46-1.27a1.29,1.29,0,0,1,1.14-1.41l0-.2a.12.12,0,0,1,.11-.14h.11a.11.11,0,0,1,.13.1l0,.21a2.38,2.38,0,0,1,1.23.32c.08,0,.08.15.06.2l-.3.57c0,.08-.11.1-.16.06s-.42-.2-.73-.29l.11.9c.52.13,1.42.45,1.53,1.31a1.37,1.37,0,0,1-1.2,1.47l.08.66a.12.12,0,0,1-.11.13h-.1a.12.12,0,0,1-.14-.09l-.08-.66A1.91,1.91,0,0,1,76,84.12C75.91,84.07,75.88,84.05,75.92,84Zm.86-3.25a.37.37,0,0,0-.31.37c0,.18.14.33.41.45Zm1,2.49a.67.67,0,0,0-.4-.49l.11.93A.43.43,0,0,0,77.81,83.19Z"/></g><circle class="cls-30" cx="93.56" cy="74.43" r="8.17"/><g class="cls-31"><path class="cls-32" d="M92.58,76.12c0,.38.59.63,1.22.55h0c.63-.08,1.1-.45,1.06-.83h0c0-.38-.6-.63-1.23-.55h0c-.63.08-1.1.45-1,.83Z"/><g class="cls-33"><path class="cls-29" d="M95,73.68a.72.72,0,0,1,.62-.79.7.7,0,0,1,.78.62.69.69,0,0,1-.61.78A.71.71,0,0,1,95,73.68Z"/><path class="cls-29" d="M90.5,74.23a.7.7,0,0,1,.61-.79.72.72,0,0,1,.79.62.71.71,0,0,1-1.4.17Z"/></g><path class="cls-34" d="M87.82,76.54a1.09,1.09,0,0,1,.05-.17,2.5,2.5,0,0,1,.21-.48l.09-.15a3.55,3.55,0,0,1,.23-.31,4.72,4.72,0,0,1,.76-.71,5.74,5.74,0,0,1-.46-1.46h0c.44-.45,1.47-.11,2.52-.39,1.53-.42,1.35-1.5,1.84-1.69.53.06.61,1.16,2.19,1.2,1.09,0,2-.56,2.55-.23h0a.53.53,0,0,0,0,.13,6.8,6.8,0,0,1-.11,1.34l.21.09a6.07,6.07,0,0,1,.57.31l.17.11a2.6,2.6,0,0,1,.31.25l.14.13a2.31,2.31,0,0,1,.42.58,1.84,1.84,0,0,1,.2.64c.22,1.82-2.28,3.63-5.59,4l-.4,0h-.1l-.34,0H91.79l-.22,0h0l-.25,0h-.07l-.17,0-.09,0-.15,0h-.08l-.17,0H90.5l-.22-.07h0l-.2-.06-.06,0-.14-.06-.07,0-.14-.06-.06,0-.16-.08h0l-.18-.1,0,0-.14-.08,0,0-.11-.07,0,0-.11-.08,0,0-.14-.12h0l-.13-.12,0,0-.08-.09,0,0-.07-.09,0,0L88.09,78l0,0L88,77.85l0,0,0-.1a.14.14,0,0,0,0-.06l0-.09,0-.06,0-.1a.09.09,0,0,0,0-.05.78.78,0,0,1,0-.16h0a.88.88,0,0,1,0-.16,1,1,0,0,1,0-.17A1.65,1.65,0,0,1,87.82,76.54Z"/><path class="cls-35" d="M93,69.86h0l-.14,0h-.07c-2.48.33-3.64,1-4.13,1.73,0-1,.28-2.73.91-2.81.35,0,.72.42,1,1a8.41,8.41,0,0,1,2.26-.55,8.54,8.54,0,0,1,2.36,0c.16-.63.41-1.15.75-1.19.66-.09,1.42,1.63,1.58,2.62C97,70.06,95.68,69.57,93,69.86Z"/><path class="cls-36" d="M92.05,72.49c.67-.5.65-1.17,1-1.32.42,0,.56.75,1.39,1.06-.49,1,0,2.55.21,3.31a1.36,1.36,0,0,0-1.05-.25,1.34,1.34,0,0,0-.95.49C92.75,75,92.79,73.28,92.05,72.49Z"/><path class="cls-37" d="M93.83,70.93a1.45,1.45,0,0,0,1.74,1c.89-.11,1.54-.73,1.46-1.38s-.86-1.1-1.75-1S93.75,70.27,93.83,70.93Z"/><path class="cls-32" d="M94.34,70.74a1,1,0,0,0,1.17.67c.6-.07,1-.49,1-.93a1,1,0,0,0-1.17-.67C94.72,69.88,94.28,70.3,94.34,70.74Z"/><path class="cls-37" d="M89.2,71.49a1.44,1.44,0,0,0,1.74,1c.88-.1,1.53-.72,1.45-1.38a1.44,1.44,0,0,0-1.74-1C89.77,70.22,89.12,70.84,89.2,71.49Z"/><path class="cls-35" d="M89.25,71.06a.9.9,0,0,0,0,.43,1.44,1.44,0,0,0,1.74,1c.88-.1,1.53-.72,1.45-1.38a1.19,1.19,0,0,0-1-.94,11.44,11.44,0,0,1,1.43-.27h.07l.14,0h0a14.36,14.36,0,0,1,1.52-.08,1.21,1.21,0,0,0-.72,1.15,1.45,1.45,0,0,0,1.74,1c.89-.11,1.54-.73,1.46-1.38a.93.93,0,0,0-.12-.33c1.51.72,1.12,2.06.91,1.93-.53-.33-1.46.25-2.55.23-1.58,0-1.66-1.14-2.19-1.2-.49.19-.31,1.27-1.84,1.69-1,.28-2.08-.06-2.52.39C88.54,73.43,87.8,72.14,89.25,71.06Z"/><path class="cls-32" d="M89.7,71.31a1,1,0,0,0,1.18.67c.59-.08,1-.49,1-.94a1,1,0,0,0-1.18-.67C90.09,70.45,89.65,70.86,89.7,71.31Z"/></g><g class="cls-26"><path class="cls-21" d="M117.51,54c-.08,1.21-5.21,22-5.68,22.37-1.42,1-39.41-10.84-40.06-11.9l1.62-3.81c1-.45,42.12-7.36,42.12-7.36S117.53,53.66,117.51,54Z"/></g><path class="cls-27" d="M76.78,42.05c-.64.29-6.45,18.92-6,19.93s38.27,12.75,39.4,12.21,7.1-20.57,6.42-21.62S77.43,41.76,76.78,42.05Z"/><g class="cls-28"><path class="cls-29" d="M108.78,57.21l.43-.45c.09-.1.2-.12.28,0a4.24,4.24,0,0,0,.7.62l.29-1.12c-.54-.39-1.23-1.08-1-1.91a1.43,1.43,0,0,1,1.75-1l.05-.22a.14.14,0,0,1,.17-.1l.11,0a.13.13,0,0,1,.1.16l0,.23a2.64,2.64,0,0,1,1.16.83.18.18,0,0,1,0,.23l-.55.48a.14.14,0,0,1-.2,0,5.13,5.13,0,0,0-.64-.6l-.24,1c.49.35,1.3,1,1.07,2a1.52,1.52,0,0,1-1.83,1.06l-.18.72a.14.14,0,0,1-.16.1l-.12,0a.13.13,0,0,1-.1-.16l.18-.72a2.09,2.09,0,0,1-1.2-.86C108.72,57.33,108.69,57.29,108.78,57.21ZM111,54.15a.42.42,0,0,0-.47.27.63.63,0,0,0,.25.63Zm.08,3a.72.72,0,0,0-.22-.67l-.25,1A.45.45,0,0,0,111.05,57.17Z"/></g><g class="cls-28"><path class="cls-29" d="M105.44,69.71l.43-.35a.16.16,0,0,1,.26,0,3.41,3.41,0,0,0,.55.62l.38-1a1.77,1.77,0,0,1-.7-1.81,1.29,1.29,0,0,1,1.67-.71l.07-.19a.13.13,0,0,1,.16-.07l.1,0a.11.11,0,0,1,.07.15l-.07.2a2.5,2.5,0,0,1,.94.86.16.16,0,0,1,0,.2l-.54.37a.11.11,0,0,1-.17,0,6.21,6.21,0,0,0-.5-.6l-.33.84a1.79,1.79,0,0,1,.73,1.88,1.37,1.37,0,0,1-1.74.74l-.24.62a.11.11,0,0,1-.15.06l-.1,0a.12.12,0,0,1-.08-.15l.24-.62a1.9,1.9,0,0,1-1-.89C105.37,69.81,105.36,69.78,105.44,69.71Zm2.28-2.47a.35.35,0,0,0-.44.18.55.55,0,0,0,.15.59Zm-.25,2.69a.65.65,0,0,0-.13-.62l-.33.87A.43.43,0,0,0,107.47,69.93Z"/></g><g class="cls-28"><path class="cls-29" d="M77.3,48.92l.39-.43c.08-.09.19-.11.26,0a3.62,3.62,0,0,0,.66.55l.24-1c-.51-.35-1.15-1-1-1.73a1.32,1.32,0,0,1,1.59-1l.05-.21a.12.12,0,0,1,.15-.09l.11,0a.13.13,0,0,1,.09.15l0,.21a2.51,2.51,0,0,1,1.09.74.16.16,0,0,1,0,.21l-.5.46a.12.12,0,0,1-.18,0,6.16,6.16,0,0,0-.6-.53l-.2.9c.45.31,1.22.94,1,1.81a1.42,1.42,0,0,1-1.67,1l-.15.66a.11.11,0,0,1-.15.09l-.1,0a.13.13,0,0,1-.1-.15l.15-.66a1.91,1.91,0,0,1-1.12-.77C77.25,49,77.23,49,77.3,48.92Zm2-2.87a.39.39,0,0,0-.43.25.6.6,0,0,0,.24.58Zm.14,2.78a.68.68,0,0,0-.22-.61l-.21.93A.42.42,0,0,0,79.4,48.83Z"/></g><g class="cls-28"><path class="cls-29" d="M73.84,60.42l.39-.4c.08-.08.18-.1.25,0a3.92,3.92,0,0,0,.62.56l.27-1c-.48-.35-1.09-1-.9-1.71a1.29,1.29,0,0,1,1.58-.9l0-.2a.13.13,0,0,1,.15-.09l.1,0a.13.13,0,0,1,.09.15l0,.2a2.5,2.5,0,0,1,1,.75c.06.06,0,.17,0,.21l-.5.43a.11.11,0,0,1-.17,0,6.86,6.86,0,0,0-.57-.54l-.22.87c.43.32,1.15,1,.93,1.79a1.37,1.37,0,0,1-1.65.93l-.17.64a.11.11,0,0,1-.14.08l-.11,0a.13.13,0,0,1-.09-.15l.17-.64a1.86,1.86,0,0,1-1.06-.77C73.78,60.53,73.76,60.5,73.84,60.42Zm2-2.71a.37.37,0,0,0-.43.23.59.59,0,0,0,.22.57Zm0,2.7a.65.65,0,0,0-.19-.6l-.23.9A.41.41,0,0,0,75.87,60.41Z"/></g><circle class="cls-30" cx="93.74" cy="58.03" r="8.17"/><g class="cls-31"><path class="cls-32" d="M92.21,59.23c-.1.37.32.8.93,1h0c.62.16,1.19,0,1.29-.38h0c.09-.37-.33-.8-.94-1h0c-.61-.16-1.19,0-1.28.38Z"/><g class="cls-33"><path class="cls-29" d="M95.37,57.86a.71.71,0,1,1,.51.86A.72.72,0,0,1,95.37,57.86Z"/><path class="cls-29" d="M91,56.71a.71.71,0,1,1,.51.86A.71.71,0,0,1,91,56.71Z"/></g><path class="cls-34" d="M87.63,57.88a.64.64,0,0,1,.1-.13,1.85,1.85,0,0,1,.37-.37.83.83,0,0,1,.15-.11,2.49,2.49,0,0,1,.32-.2,4.27,4.27,0,0,1,1-.39,5.53,5.53,0,0,1,.11-1.53h0c.57-.25,1.41.44,2.49.56,1.57.17,1.8-.9,2.33-.9.46.26.14,1.31,1.6,1.92,1,.42,2.07.22,2.45.71,0,0,0,0,0,0l0,.12a6.19,6.19,0,0,1-.6,1.21l.17.16a6.19,6.19,0,0,1,.42.5l.12.17a2.9,2.9,0,0,1,.19.34l.08.17a2.2,2.2,0,0,1,.18.69,1.94,1.94,0,0,1,0,.68c-.47,1.77-3.46,2.54-6.69,1.7L92,63.1l-.1,0L91.56,63l-.06,0-.35-.13-.09,0-.28-.12-.06,0,0,0a.2.2,0,0,1-.08,0l-.16-.07-.09,0-.15-.08-.08,0-.19-.1,0,0-.22-.13-.06,0-.15-.1-.07,0-.13-.09-.07-.05-.14-.1,0,0-.18-.14h0l-.15-.13,0,0-.12-.1,0,0-.11-.11,0,0-.13-.13,0,0c0-.06-.09-.11-.13-.16l0,0-.09-.12,0,0-.07-.11,0,0-.07-.11,0,0a.8.8,0,0,1-.08-.16h0l-.08-.16,0,0s0-.08,0-.12l0-.05,0-.11,0-.06,0-.12v0l0-.16v0s0-.08,0-.12V59a.34.34,0,0,1,0-.1v-.06s0-.07,0-.11a.07.07,0,0,0,0,0l0-.15h0s0-.11.05-.16l.06-.15A1.69,1.69,0,0,1,87.63,57.88Z"/><path class="cls-35" d="M94.92,53.58h0l-.14,0-.07,0h0c-2.43-.6-3.77-.36-4.47.1.33-1,1.25-2.44,1.87-2.28.34.08.52.64.58,1.29A8.84,8.84,0,0,1,95,53a8.7,8.7,0,0,1,2.21.84c.37-.53.8-.93,1.13-.84.64.17.72,2,.51,3C98.52,55.21,97.49,54.28,94.92,53.58Z"/><path class="cls-36" d="M93.05,55.66c.8-.21,1-.85,1.44-.85.37.2.24.91.9,1.5-.8.7-1,2.35-1,3.15a1.36,1.36,0,0,0-.89-.61,1.34,1.34,0,0,0-1.07.11C92.78,58.23,93.44,56.67,93.05,55.66Z"/><path class="cls-37" d="M95.27,54.86c-.16.64.4,1.34,1.26,1.56a1.45,1.45,0,0,0,1.86-.75c.16-.64-.4-1.34-1.26-1.57A1.46,1.46,0,0,0,95.27,54.86Z"/><path class="cls-32" d="M95.81,54.87c-.11.43.27.91.85,1.06a1,1,0,0,0,1.25-.51c.11-.43-.27-.91-.85-1.06A1,1,0,0,0,95.81,54.87Z"/><path class="cls-37" d="M90.75,53.69c-.16.64.4,1.34,1.26,1.56a1.45,1.45,0,0,0,1.86-.75c.16-.64-.4-1.34-1.26-1.57A1.46,1.46,0,0,0,90.75,53.69Z"/><path class="cls-35" d="M91,53.31a1,1,0,0,0-.21.38c-.16.64.4,1.34,1.26,1.56a1.45,1.45,0,0,0,1.86-.75,1.21,1.21,0,0,0-.58-1.25,14.12,14.12,0,0,1,1.42.28h0l.07,0,.14,0h0a12.11,12.11,0,0,1,1.44.48,1.2,1.2,0,0,0-1.09.8c-.16.64.4,1.34,1.26,1.56a1.45,1.45,0,0,0,1.86-.75.83.83,0,0,0,0-.35c1.14,1.22.29,2.33.14,2.12-.38-.49-1.45-.29-2.45-.71-1.46-.61-1.14-1.66-1.6-1.92-.53,0-.76,1.07-2.33.9-1.08-.12-1.92-.81-2.49-.56C89.43,55.25,89.22,53.78,91,53.31Z"/><path class="cls-32" d="M91.29,53.7c-.11.43.27.9.85,1a1,1,0,0,0,1.25-.5c.11-.43-.27-.91-.85-1.06A1,1,0,0,0,91.29,53.7Z"/></g><path class="cls-38" d="M107.21,87.56c-1.16-3.44-13.21.64-12,4.07a6.36,6.36,0,1,0,12-4.07Z"/><g class="cls-39"><path class="cls-40" d="M107.21,87.56c-1.16-3.44-13.21.64-12,4.07a6.36,6.36,0,1,0,12-4.07Z"/></g><path class="cls-41" d="M107.73,89.1A6.36,6.36,0,1,0,103.67,97,6.37,6.37,0,0,0,107.73,89.1Z"/><path class="cls-38" d="M107,87A6.36,6.36,0,1,0,95,91.05,6.36,6.36,0,0,0,107,87Z"/><g class="cls-42"><line class="cls-43" x1="103.43" y1="96.23" x2="102.33" y2="92.99"/><line class="cls-43" x1="105.47" y1="95.53" x2="104.38" y2="92.3"/><line class="cls-43" x1="107.52" y1="94.84" x2="106.43" y2="91.61"/><line class="cls-43" x1="101.38" y1="96.92" x2="100.28" y2="93.68"/><line class="cls-43" x1="99.33" y1="97.61" x2="98.23" y2="94.38"/></g><g class="cls-39"><rect class="cls-2" x="101.56" y="86.02" width="0.73" height="1.13" transform="translate(-20.87 139.57) rotate(-63.69)"/><path class="cls-44" d="M101.26,85.85a.36.36,0,0,1,.21-.19.34.34,0,0,1,.28,0l1,.5a.32.32,0,0,1,.18.21.39.39,0,0,1,0,.28l-.33.65,1,.5-2.15,4.33L97.8,90.34,99.94,86l1,.49Z"/><path class="cls-44" d="M103.08,92.14a.73.73,0,0,1-.42.37.75.75,0,0,1-.57,0l-.33-.16L103.9,88l.34.17a.66.66,0,0,1,.23.18.77.77,0,0,1,.14.25.65.65,0,0,1,0,.28.68.68,0,0,1-.07.28Z"/><path class="cls-44" d="M98.73,85.66a.68.68,0,0,1,.56,0l.33.17-2.14,4.33L97.15,90a.7.7,0,0,1-.37-.42.71.71,0,0,1,0-.57l1.49-3A.72.72,0,0,1,98.73,85.66Z"/><g class="cls-45"><rect class="cls-2" x="95.93" y="83.05" width="10.02" height="11.08" transform="translate(-23.21 139.8) rotate(-63.69)"/></g></g><path class="cls-38" d="M86.7,38.81c-2.67-2.67-12,6.7-9.37,9.37a6.63,6.63,0,1,0,9.37-9.37Z"/><g class="cls-39"><path class="cls-40" d="M86.7,38.81c-2.67-2.67-12,6.7-9.37,9.37a6.63,6.63,0,1,0,9.37-9.37Z"/></g><path class="cls-46" d="M87.07,40.84a6.63,6.63,0,1,0-.16,9.21A6.62,6.62,0,0,0,87.07,40.84Z"/><path class="cls-38" d="M86.24,38.36a6.63,6.63,0,1,0-.15,9.21A6.61,6.61,0,0,0,86.24,38.36Z"/><g class="cls-47"><line class="cls-48" x1="87.17" y1="48.65" x2="84.66" y2="46.14"/><line class="cls-48" x1="88.76" y1="47.06" x2="86.25" y2="44.54"/><line class="cls-48" x1="90.36" y1="45.47" x2="87.84" y2="42.95"/><line class="cls-48" x1="85.58" y1="50.24" x2="83.06" y2="47.73"/><line class="cls-48" x1="83.98" y1="51.84" x2="81.47" y2="49.32"/></g><g class="cls-39"><rect class="cls-2" x="80.73" y="39.97" width="1.17" height="0.76"/><path class="cls-44" d="M80.36,40a.38.38,0,0,1,.38-.39h1.17a.36.36,0,0,1,.26.11.37.37,0,0,1,.11.28v.76h1.17v5H79.2v-5h1.16Z"/><path class="cls-44" d="M85,45a.73.73,0,0,1-.22.54.78.78,0,0,1-.55.23h-.38v-5h.38a.73.73,0,0,1,.3.06.7.7,0,0,1,.25.17.78.78,0,0,1,.16.24.8.8,0,0,1,.06.3Z"/><path class="cls-44" d="M77.9,41a.74.74,0,0,1,.55-.23h.38v5h-.38a.78.78,0,0,1-.55-.23.73.73,0,0,1-.22-.54V41.5A.73.73,0,0,1,77.9,41Z"/><g class="cls-49"><rect class="cls-2" x="75.55" y="37.45" width="11.54" height="10.43"/></g></g></g></g></g></svg>