<svg viewBox="0 0 421.78 259.62" xmlns="http://www.w3.org/2000/svg" xmlns:xlink="http://www.w3.org/1999/xlink"><linearGradient id="a" gradientUnits="userSpaceOnUse" x1="99.88" x2="421.78" y1="123.98" y2="123.98"><stop offset="0" stop-color="#fff"/><stop offset="1" stop-color="#c5f3fd"/></linearGradient><path d="m99.88 248h298.69s52.22-131.07 0-194.24c-71.63-86.64-237.9-56.6-278.24 6.52-34.06 53.3-12 187.72-12 187.72" fill="url(#a)"/><path d="m364.09 249.09-72.4-181.14-72.2 178.1" fill="none" stroke="#078deb" stroke-miterlimit="10" stroke-width="4.97"/><path d="m364.07 221.4h-144.65v-136.14h145.64z" fill="#078deb"/><path d="m227.38 92.68h128.74v120.76h-128.74z" fill="#fff"/><path d="m227.38 92.68h128.74v120.76h-128.74z" fill="none" opacity=".2" stroke="#4b6a80" stroke-miterlimit="10" stroke-width=".63"/><path d="m291.74 213.44v-120.76" fill="none" opacity=".2" stroke="#4b6a80" stroke-miterlimit="10" stroke-width=".63"/><path d="m356.11 155.05h-128.73" fill="none" opacity=".2" stroke="#4b6a80" stroke-miterlimit="10" stroke-width=".64"/><path d="m341 106.62a1.66 1.66 0 0 0 -1 .45c-.17.17-.22.29-.21.3a6.47 6.47 0 0 0 -1 1c-.59.68-1.5 1.75-2.54 3 0 0-.06.07-.11.05h-.18l-.57-.12-1.2-.26-2.64-.56-3-.61-.8-.17a.93.93 0 0 0 -.61.12 1 1 0 0 0 -.22.19l-.12.15-1 1.28a.69.69 0 0 0 .22 1 3.58 3.58 0 0 0 .56.2l.37.12 1.52.49 3.16 1 1.58.5a0 0 0 0 1 0 0l-.38.48-2.05 2.53h-1.67a1.18 1.18 0 0 0 -.74.16 2 2 0 0 0 -.4.44l-.7.87a.71.71 0 0 0 -.05.8.94.94 0 0 0 .76.47l1.12.21 2 .39 1 2.42.29.67a.87.87 0 0 0 .85.53.63.63 0 0 0 .44-.19c.11-.12.26-.33.29-.36l.72-.91a.9.9 0 0 0 .14-.48.74.74 0 0 0 0-.26v-.15l-.14-.58-.27-1.07 1.72-2.16.69-.87.06.11.42.7 3.22 5.56a.76.76 0 0 0 1.17.24l.57-.71.46-.59c.08-.11.13-.15.25-.32a.88.88 0 0 0 .11-.62 1.25 1.25 0 0 0 -.09-.29l-.08-.18-.16-.36c-.11-.24-.22-.47-.32-.71l-.62-1.38-2.27-5a.1.1 0 0 1 0-.12l.25-.32.49-.62.92-1.19 1.61-2.11.14-.18a1.93 1.93 0 0 0 -.27-2.24 2 2 0 0 0 -1.69-.74z" fill="#078cea"/><path d="m236.03 205.86 45.1-56.98 17.07 12.34 34.76-41.79" fill="none" stroke="#078cea" stroke-miterlimit="10" stroke-width="1.26"/><path d="m399.4 247.87-192.29-.09s-111-9.94-127.13-8c-21.44 2.57-54.84 20.1 83.32 19.84 74.57-.14 236.1-11.75 236.1-11.75z" fill="#4b6a80" opacity=".2"/><path d="m206.25 204.89 1-9.94a2.67 2.67 0 0 0 -2.78-2.68l-21.29.77a3 3 0 0 0 -2.88 3l1 8.86h-17.63a5 5 0 0 0 -5 5v33.28a5 5 0 0 0 5 5h60.19a5 5 0 0 0 5-5v-33.29a5 5 0 0 0 -5-5zm-20.05 0-1-7.49 17.13-1-1 8.48z" fill="#414547"/><path d="m169.02 204.89h6.06l.99 43.28h-4.07z" fill="#fff" opacity=".4"/><path d="m216.81 248.17h-4.07l-1-43.28h7.05z" fill="#fff" opacity=".4"/><path d="m132 128.55s93.26 21.92 77.29 28.36c-14.52 5.86-20.16-2.62-20.16-2.62s-65.19 3.56-79.28-11.71" fill="#b8861c"/><path d="m115.69 130s-14.59-6.28-31.29-12.74c-7.52-2.9-22.69-8.26-22.69-8.26-16-7.59-23.84-8-25-2.19-1.47 7.36 17 11.2 17 11.2s51.08 40.33 71.49 36.44" fill="#b8861c"/><path d="m114.32 229.36c2.74-4.78 7.4-5.51 11.52-1.57s2.16 14.48 1.37 17.21c-1.52 5.43 1.18 6.6 19 5.81 9.37-.42 36.3-1.18 35.54-2.86-4.64-10.33-18.41-13.71-35-12.58l.51-1.23c14.17-10.23 24.78-18.48 23.67-37.59-1.38-23.87-23.65-44.15-26.78-63.19-4.45-27.05-27.58-34.25-35.74-11.78s-29.8 49.57-32.29 63.82c-7.3 32.34 19 50 19 50-16.63-1.13-30.4 2.25-35 12.58-.76 1.68 24.39 2.44 33.77 2.86 17.83.79 22.3-.38 20.78-5.81-.67-2.42-3.09-10.9-.35-15.67z" fill="#b78600"/><path d="m106.34 139.66c.47 14.75-9.46 31-12 46.14-2 11.75-2.86 29 26.62 31.54s31.94-24.91 28.6-35.8c-4.13-13.41-13.5-26.66-11.26-42.47 3.37-23.66-32.71-23.25-31.96.59z" fill="#fff"/><path d="m83.18 198.11a191.58 191.58 0 0 0 36.92 5.73 242.05 242.05 0 0 0 41.09-2.05l-15.55-79.69-38.18-4.1z" fill="#fff"/><path d="m68.57 128.36s-11.82-7.82-14.91-10.36c-.37-.31 3.25-11.82 4-11.69l17.34 3.26" fill="#fff"/><path d="m61.68 106.68 31.89 5.56a1.58 1.58 0 0 1 .37.11l14.7 6.58a1.57 1.57 0 0 1 .89 1.75s-8.63 82.9-10.09 85.24-24.83.74-25.85-4.27c-2-9.81 1.36-37.59 10.84-55.32 2.27-4.23-21-16.59-28.11-23.28a.91.91 0 0 1 -.21-.85l4.7-15a.77.77 0 0 1 .87-.52z" fill="#414547"/><path d="m173.05 152.73s12.78 2.14 16.43 2.37c.43 0 5.18-9.92 4.61-10.3l-13.59-8.61" fill="#fff"/><path d="m144.71 207.17c1 2.39 29.22 0 29.23-4.37 0-27.18-9.6-47.34-7.45-47.26l18.26.72a.82.82 0 0 0 .78-.46l6.6-13a.8.8 0 0 0 -.34-1.06l-36.9-19.34h-19.57s8.35 82.39 9.39 84.77z" fill="#414547"/><path d="m116.84 122.12a3.48 3.48 0 0 0 -.92 4.35l2.72 5.8a2.28 2.28 0 0 0 2.06 1.31h7.11a2.47 2.47 0 0 0 2-1.05 16.83 16.83 0 0 0 2.77-6.58c.72-4.29-15.74-3.83-15.74-3.83z" fill="#078deb"/><path d="m120.32 131.92c-.73 7-9.16 40.9-10.39 45.77a1.11 1.11 0 0 0 .27 1l10.8 11.62a.75.75 0 0 0 1 .08c1.76-1.46 9.68-9.21 11.24-10.74a.75.75 0 0 0 .22-.63l-5.31-46.71z" fill="#078deb"/><path d="m93.76 112.27 3.89 13.59 6.17-1.44-7.82 7.42 6.09 46.76s11-47.9 8.31-59c-10.07-4.85-16.64-7.33-16.64-7.33z" fill="#57606d"/><path d="m155.41 122.29-6.19 10.92-5.92-2.21 6.77 8.39-8 41.66s-9.43-46.43-5.32-57a55.8 55.8 0 0 0 18.66-1.76z" fill="#57606d"/><path d="m105.15 118 7 13a.29.29 0 0 0 .52 0c1-1.93 4.65-8.57 10-8.11 6.33.53-13.49-2.95-17.52-4.89z" fill="#b0d5f4"/><path d="m145.57 124-11 9.22a.47.47 0 0 1 -.76-.2c-.67-1.8-2.77-7-5.94-9.66-3.87-3.36 17.7.64 17.7.64z" fill="#b0d5f4"/><path d="m120.16 133.11-1 5.25 9.31-1.82-.36-3.49s-5.11-1.4-7.95.06z" fill="#333" opacity=".2"/><path d="m118.46 48.65c-1.34 8.23-7.2 14.11-13.08 13.15s-9.56-8.41-8.22-16.63 8.82-24 14.71-23.07 7.93 18.33 6.59 26.55z" fill="#b8861c"/><path d="m173.14 57.59c-1.35 8.22-7.2 14.11-13.08 13.14s-9.57-8.4-8.22-16.62 8.82-24 14.7-23.08 7.94 18.34 6.6 26.56z" fill="#b8861c"/><path d="m168.25 82.12a47.14 47.14 0 0 0 4.83-14c3.5-21.43-13.68-30.42-35.12-33.92s-39.66-1.2-43.17 20.28a49.92 49.92 0 0 0 0 15.19c-10 3.57-16.89 9.64-18.15 17.37-2.54 15.52 18.37 31.85 46.69 36.48s53.34-4.2 55.87-19.72c1.26-7.51-3.01-15.2-10.95-21.68z" fill="#edcba8"/><path d="m173.5 58.69c-2-15.13-17.15-22-35.34-25-19.41-3.17-36.2-1.51-41.8 14.74-.54 1.59 22.54 5 24.12 6.28 11 9.21-1.47 36-1.47 36l9.16 2.75h.11.11l9.56.32s-3.31-29.36 10.05-34.59c1.93-.75 25.78 3.91 25.72 2-.04-.83-.11-1.68-.22-2.5z" fill="#b8861c"/><path d="m138.38 92.79c-.53 3.26-5.33 5.19-10.7 4.31-5.38-.88-9.32-4.23-8.78-7.49.53-3.26 5.33-5.19 10.71-4.31 5.38.88 9.3 4.23 8.77 7.49z" fill="#333"/><path d="m118.22 71a6.07 6.07 0 1 0 -7 5 6.06 6.06 0 0 0 7-5z" fill="#333"/><path d="m115 68.67a1.43 1.43 0 1 1 -1.18-1.67 1.43 1.43 0 0 1 1.18 1.67z" fill="#fff"/><path d="m157 77.28a6.07 6.07 0 1 0 -7 5 6.07 6.07 0 0 0 7-5z" fill="#333"/><path d="m153.73 75a1.43 1.43 0 1 1 -1.18-1.66 1.44 1.44 0 0 1 1.18 1.66z" fill="#fff"/><path d="m138.48 39.15-.58-.09-1.21-.2c-49.76-7.52-44.81 19.45-42 17.86 4.67-2.61 12.43 2.69 21.79 2.87 13.65.25 14.72-9.15 19.27-9.55 4.25 1.83 2.25 11.08 15.25 15.18 8.92 2.82 18 .26 21.56 4.23 2.2 2.41 15.5-21.58-34.08-30.3z" fill="#603813"/><path d="m129.43 47.7c-.92 5.61-7.78 9.16-15.33 7.93s-12.93-6.79-12-12.4 7.78-9.16 15.33-7.93 12.91 6.79 12 12.4z" fill="#ffe500"/><path d="m125.14 45.94c-.62 3.78-5.25 6.17-10.34 5.34s-8.7-4.57-8.09-8.35 5.25-6.18 10.34-5.35 8.7 4.58 8.09 8.36z" fill="#fff"/><path d="m169.08 54.18c-.92 5.61-7.78 9.16-15.33 7.93s-12.92-6.79-12-12.4 7.78-9.16 15.33-7.92 12.92 6.78 12 12.39z" fill="#ffe500"/><path d="m164.8 52.42c-.62 3.78-5.25 6.17-10.34 5.34s-8.71-4.57-8.09-8.35 5.24-6.18 10.33-5.34 8.71 4.57 8.1 8.35z" fill="#fff"/><path d="m134.24 106.2-1.18 7.97-15.87-2.74 1.22-7.91" fill="#fff"/><path d="m143.35 103.52c-.1-.18-1.86.63-4.9 1.21a33.27 33.27 0 0 1 -5.38.57 36.72 36.72 0 0 1 -6.61-.46 33.44 33.44 0 0 1 -6.39-1.68 29.86 29.86 0 0 1 -4.86-2.35c-2.65-1.6-4-3-4.15-2.86s1 1.82 3.59 3.71a23.52 23.52 0 0 0 3.27 2l-1.33 7.71a.61.61 0 0 0 .45.69l15.96 2.71a.63.63 0 0 0 .46-.11.61.61 0 0 0 .25-.39l1.34-7.82a25.2 25.2 0 0 0 3.68-.73c3.05-.86 4.73-2.04 4.62-2.2zm-25.46 7.41 1.17-6.77.52.23a29.37 29.37 0 0 0 6.09 1.76l-1 5.95zm14.67 2.53-6.76-1.16 1-6a31.66 31.66 0 0 0 6.29.28h.63z" fill="#333"/><path d="m38.86 80.28c-.86-.67-23.64 7-24.22 7.82s13.49 36.15 14.63 36.39 20.54-4.89 21-6-10.54-37.49-11.41-38.21z" fill="#c5d1e3"/><path d="m37.29 85-18.29 6s10.88 30 11.32 30.16 17-3.24 17.33-4-10.36-32.16-10.36-32.16z" fill="#fff"/><g fill="#078cea"><path d="m37.29 85c-.29-.1-18.2 5.87-18.29 6s1.73 4.72 1.73 4.72l18.09-6.29a35.16 35.16 0 0 0 -1.53-4.43z"/><path d="m8.74 90.15c-.47.42-7.65.07-8.3-.12s-.51-4 0-4.14 8.56 1.87 8.56 2.35.22 1.48-.26 1.91z"/><path d="m10 83.26c-.48.09-8-4-8.13-4.45s2.21-3.12 2.65-3.2 6.47 5.9 6.53 6.23a1.89 1.89 0 0 1 -1.05 1.42z"/><path d="m15 80.53c-.18-.46-2.62-6.7-2.35-7.19s2.76-.45 3.46-.2.64 7.22.31 7.4-1.28.46-1.42-.01z"/></g><path d="m51.35 104.67s-10.52-4.44-12-.1 9.44 4.66 9.44 4.66" fill="#b8861c"/></svg>