<svg xmlns="http://www.w3.org/2000/svg" viewBox="0 0 259.39 138.21"><defs><style>.cls-1,.cls-4{fill:#c7e0f7;}.cls-2,.cls-3,.cls-6,.cls-7{fill:#078cea;}.cls-2,.cls-5{opacity:0.2;}.cls-10,.cls-3{opacity:0.15;}.cls-13,.cls-14,.cls-4{opacity:0.7;}.cls-7{opacity:0.3;}.cls-8{fill:#efeaea;}.cls-12,.cls-9{fill:none;stroke-miterlimit:10;}.cls-9{stroke:#efeaea;stroke-width:1.07px;stroke-dasharray:4.26 4.26;}.cls-10,.cls-11{fill:#563e14;}.cls-11{opacity:0.1;}.cls-12{stroke:#d9edfc;stroke-width:1.25px;}.cls-13,.cls-18{fill:#fff;}.cls-14{fill:#fcbd00;}.cls-15{fill:#fae34d;}.cls-16{fill:#ea6f13;}.cls-17{fill:#ff8517;}</style></defs><title>map</title><g id="Layer_2" data-name="Layer 2"><g id="WIREFRAME"><polygon class="cls-1" points="96.12 42.06 27.55 43.05 0 123.21 6.65 132.2 77.09 131.21 96.12 42.06"/><polygon class="cls-2" points="96.12 42.06 27.55 43.05 0 123.21 6.65 132.2 77.09 131.21 96.12 42.06"/><polygon class="cls-3" points="46.19 106.37 59.34 114.54 3.08 114.24 0 123.21 6.65 132.2 77.09 131.21 96.12 42.06 77.45 42.33 46.19 106.37"/><polygon class="cls-4" points="32.66 52.67 26.46 72.11 75.49 72.16 85.25 51.28 32.66 52.67"/><polygon class="cls-1" points="4.33 121.3 9.11 129.23 75.37 128.31 95.38 50.69 70.41 120.13 4.33 121.3"/><polygon class="cls-2" points="8.16 127.65 73.75 126.89 77.48 116.08 76.98 115.91 73.37 126.36 7.84 127.12 8.16 127.65"/><polygon class="cls-2" points="6.12 124.26 71.6 123.69 75.58 114.65 75.09 114.44 71.25 123.16 5.8 123.73 6.12 124.26"/><path class="cls-1" d="M252.54,137.16l-73.61-6.46s6.86-63.45,8.3-64.52,68.65,3.3,70.41,4.33S252.54,137.16,252.54,137.16Z"/><g class="cls-5"><path class="cls-6" d="M235.16,100.87c11.74.12,19.83-.05,19.84-.51s-8-1-19.68-1.54c.69-9.55,1.52-18.86,1-18.9s-2.13,9.24-3.17,18.81c-4.19-.16-8.78-.31-13.61-.44-4.32-.11-8.45-.2-12.28-.25.14-9.42.44-19.64-.05-19.66s-1.59,10.2-2.08,19.63c-12.4-.15-20,.33-20,.8s7.54.79,19.91,1.29c-.11,2.35-.21,4.83-.3,7.41-.12,3.51-.2,6.86-.24,9.91-11.85-1-20.14-1.44-20.18-1s8.24,1.7,20.15,3.07c-.08,8.1.12,13.63.56,13.65s1-5.42,1.46-13.42c3.63.41,7.55.83,11.64,1.24,4.6.47,9,.87,13,1.22-.48,7.5-.57,12.54-.16,12.58s1.22-4.94,2.11-12.41c11.28.94,19.58,1.46,19.62,1s-8.16-1.74-19.39-3.06c.4-3.49.8-7.42,1.18-11.6C234.75,106,235,103.35,235.16,100.87Zm-16.77,17.84c-4.13-.41-8.09-.78-11.76-1.11.17-3.07.31-6.46.43-10,.09-2.58.15-5.06.2-7.4,3.82.14,8,.28,12.26.39,4.76.12,9.3.21,13.45.27-.26,2.42-.51,5-.75,7.67-.38,4.16-.69,8.08-.94,11.58C227.31,119.64,223,119.17,218.39,118.71Z"/></g><polygon class="cls-1" points="186.02 79.08 257.46 83.44 259.39 63.93 186.94 62.52 186.02 79.08"/><g class="cls-5"><path class="cls-6" d="M252.32,117.12s.15-.12.18-.15S252.28,117.15,252.32,117.12Z"/><polygon class="cls-6" points="251.63 117.09 251.7 117.03 251.5 117.13 251.63 117.09"/><path class="cls-6" d="M251.62,116.87c-.1,0-.33,0-.3-.12-.23.28.15.08.12.23l-.05.06Z"/><path class="cls-6" d="M251.73,116.07a.11.11,0,0,1,0,0c-.09.11-.13,0,0,.08S251.73,116.08,251.73,116.07Z"/><path class="cls-6" d="M251.73,116.07c.05,0,.07-.1,0,0Z"/><path class="cls-6" d="M251.74,115.78c-.1,0-.15.06-.22.19l.14,0C251.71,115.86,251.68,115.81,251.74,115.78Z"/><path class="cls-6" d="M251.29,116.1h.06S251.37,116.05,251.29,116.1Z"/><path class="cls-6" d="M251.48,116.06l-.13,0s-.12.13.05,0C251.32,116.15,251.4,116.09,251.48,116.06Z"/><path class="cls-6" d="M251.47,116.13c0,.08,0,.15-.17.19C251.42,116.37,251.59,116.18,251.47,116.13Z"/><path class="cls-6" d="M251,117l0,.11.11,0S251.11,116.91,251,117Z"/><path class="cls-6" d="M251.38,115.55c-.06,0-.13.15-.2.22l.1,0A.37.37,0,0,1,251.38,115.55Z"/><path class="cls-6" d="M251.18,115.77l-.14,0C251.07,115.87,251.12,115.83,251.18,115.77Z"/><polygon class="cls-6" points="250.99 116.37 251.27 116.26 250.97 116.35 250.99 116.37"/><polygon class="cls-6" points="251.36 115.25 251.11 115.38 251.2 115.34 251.36 115.25"/><path class="cls-6" d="M251.05,115.23c.13-.07.16-.2.24-.23s-.17,0-.28.08C251.09,115.07,251.1,115.11,251.05,115.23Z"/><path class="cls-6" d="M251,115.68l0,0a.62.62,0,0,0,.12-.19Z"/><path class="cls-6" d="M251,115.68h0l0-.06A.15.15,0,0,0,251,115.68Z"/><path class="cls-6" d="M250.66,116.36c.13-.08.17-.18.35-.26C250.89,116.15,250.74,116.18,250.66,116.36Z"/><path class="cls-6" d="M251,115.87l-.17,0,0,.09A.64.64,0,0,1,251,115.87Z"/><polygon class="cls-6" points="250.74 115.93 250.81 115.91 250.81 115.88 250.74 115.93"/><path class="cls-6" d="M250.63,115.39a.17.17,0,0,0,.05.13s.15-.11.11-.14A.18.18,0,0,1,250.63,115.39Z"/><path class="cls-6" d="M250.86,115.54h0S250.83,115.57,250.86,115.54Z"/><path class="cls-6" d="M250.34,115.13l0,0h0Z"/><path class="cls-6" d="M250.65,115.56s0,0,.11,0a.1.1,0,0,1-.08,0S250.64,115.56,250.65,115.56Z"/><path class="cls-6" d="M250.7,115.14l0,.12C250.69,115.2,250.75,115.11,250.7,115.14Z"/><path class="cls-6" d="M250.89,115.49h0Z"/><path class="cls-6" d="M250.85,115.54s0,0,0,0l-.12,0S250.81,115.55,250.85,115.54Z"/><path class="cls-6" d="M250.08,115.27c-.06.09-.07.29-.25.37s0-.11,0-.21c-.15.2-.34.15-.59.42l.15,0s-.13.08-.15.13c.15-.13.34-.2.24,0a3.55,3.55,0,0,0,.82-.83A.49.49,0,0,1,250.08,115.27Z"/><path class="cls-6" d="M250.58,115a.58.58,0,0,0-.21.11l.08.13,0,0h0A.72.72,0,0,1,250.58,115Z"/><path class="cls-6" d="M250.65,115.27h0v0h0l-.06,0c0-.06,0,0,.06,0l0,0h0l-.19,0s0,.07.1.1c-.18.13-.3.14-.43.34.07,0,.17-.08.28-.11-.14-.07.11,0,.13-.21a.09.09,0,0,1,.09,0s0-.08,0-.13Z"/><path class="cls-6" d="M250.32,116.49s.1-.06.11,0-.08.07-.13.12.17-.06.2-.17h0a.87.87,0,0,1,.19-.35C250.53,116.23,250.44,116.33,250.32,116.49Z"/><path class="cls-6" d="M250.14,116.12l.08-.08c0,.08.11,0,.18-.08l-.16,0Z"/><polygon class="cls-6" points="250.43 115.01 250.61 114.87 250.32 115.04 250.43 115.01"/><polygon class="cls-6" points="250.34 114.84 250.3 114.92 250.45 114.78 250.34 114.84"/><path class="cls-6" d="M247.62,112.13c.1-.17.27-.41.11-.25l-.14.16S247.64,112.08,247.62,112.13Z"/><path class="cls-6" d="M244.82,111.16,245,111l-.14.06Z"/><path class="cls-6" d="M241.26,109.31l-.19.12S241.17,109.38,241.26,109.31Z"/><path class="cls-6" d="M249.13,113.8c0-.09,0-.14,0-.17C249.1,113.76,249,113.92,249.13,113.8Z"/><path class="cls-6" d="M249.15,113.63c0-.09,0-.16-.09-.09l0,0C249.09,113.59,249.13,113.59,249.15,113.63Z"/><path class="cls-6" d="M247.85,114.23h0S247.83,114.26,247.85,114.23Z"/><path class="cls-6" d="M250,114.42v0S250,114.42,250,114.42Z"/><path class="cls-6" d="M249.92,114.42s0,0,0,0l0,0S249.91,114.4,249.92,114.42Z"/><path class="cls-6" d="M240.18,107.06v0C240.1,107.08,240.12,107.08,240.18,107.06Z"/><polygon class="cls-6" points="245.38 113.06 245.39 113.05 245.4 113.04 245.38 113.06"/><path class="cls-6" d="M245.18,113.08c.23-.15.23-.11.22,0l.42-.46Z"/><path class="cls-6" d="M249.42,115.1c.13-.06-.19.41.14.16l.1-.2c.17,0,.47-.21.46-.07.19-.24,0,0,.17-.29-.28.35-.15-.18-.42.2.25-.33,0-.2.24-.51-.07.07-.12.16-.14.07l-.07.05h0a1,1,0,0,1-.08.14c-.2.13-.28,0-.4.09s.1-.07.16-.16l-.17.08c.16-.16.18-.35.36-.36l-.06-.08c.05-.13,0-.22-.07-.19s-.27.08-.11,0h-.21l0,0c-.08-.13-.48,0-.31-.38-.08,0-.16,0-.17-.09l.13-.15c-.1,0,0-.28-.17-.16.34-.41-.13-.31-.15-.46l-.18.17c-.05-.06-.15-.07-.29-.07l-.16.16c-.2.06,0-.27-.15-.35.07,0,.08,0,.06,0,.26-.47-.51,0-.34-.35-.08,0-.08,0-.06-.07h0a0,0,0,0,0,0,0,.61.61,0,0,0,.05-.12l-.06.11a.18.18,0,0,0-.14,0l.17-.18h0c0-.09-.1,0-.22.2l-.14.06c.26-.3-.17,0,.1-.31-.17.12-.26,0-.58.23,0,0,.05-.07.07,0s0-.14-.11-.09l.2-.22-.36.21a.79.79,0,0,1,.36-.39c-.36.15-.18,0-.53.17l.15-.14s-.28.11-.18,0c.21-.34-.3-.4-.23-.83-.39.44.11-.27-.22,0,.09-.11.12-.19.23-.24-.19,0,0-.3-.31-.1.09-.11.16-.12.21-.18s-.11.05-.06,0a.24.24,0,0,1,.15-.09c-.11-.08-.42.2-.72.47.09-.18.05-.19-.18,0,.08-.11.15-.23.24-.2s-.05-.25-.21-.17a1.38,1.38,0,0,0-.08-.2l.2.15c-.08-.13.49,0,.41-.31a.31.31,0,0,1,.07.09c-.06-.37.88,0,.27-.62l-.06-.27c-.19.1-.28-.28-.44-.32,0-.1.33,0,.31.13l0,0c.33.35.29-.07.52.15.25-.31.69-.41,1-.67l-.3-.22.1-.08c.09,0,.25.16.17.22.19.1,0-.23-.08-.29.23,0,.27.34.31.31l0-.08h0c-.07-.15-.19-.26-.1-.33s.19.13.22.11,0,0,0,0l.13-.1-.26-.15c-.06-.15.11-.1-.18-.27.45.27.53-.32.69-.26-.08-.22,0-.29.08-.37-.06,0-.31-.22-.21-.27.47.48.34.05.75.32-.28-.17.14-.28-.27-.5.1,0,.19.16.35.22,0-.33.43-.23.54-.48-.06-.06-.19-.12-.25-.25l.41.2c0-.07-.34-.39-.05-.25-.07,0-.16-.1-.16-.14.65-.09.43-1,1.37-.85-.18-.06-.16-.11-.13-.15s-.16-.15-.25-.23l.39.07c-.22-.26.14-.19-.08-.42v.09c-.22-.33-.7-.48-1-.82.24.37-.64-.23-.31.32-.09,0-.09-.13-.18-.2.12.18.12.24,0,.25l0,0c-.14.23-.36.18-.66.31l.19.15a.31.31,0,0,1-.19,0c.21.3.13-.12.38.2-.41-.26-.31.34-.75,0-.07.07.22.16.15.23l-.12-.08.12.15c-.07,0-.23-.08-.32-.16s0-.06,0-.08c-.19,0-.12.22-.18.2h.13c-.08.3-.44.41-.39.81l.1.07c0,.28-.2,0-.28.26v0c0,.11.06.2,0,.23-.06-.13-.26-.09-.32-.25,0,.32.06.2.27.59l-.16-.1c.09.15.16.21.12.33-.06-.18-.26-.14-.35-.36-.45-.11.08.53-.43.21.31.42.34,0,.39.16s.22.33.14.34-.57-.35-.69-.2c0,0,0,0,0-.06s0,.22-.17.14c.2.25-.09.07.2.35l0-.19c0,.15.3.53,0,.49a.85.85,0,0,1-.12-.23c-.12,0,0,.12-.12.07-.29-.28.07-.21-.09-.49-.15-.08.09.34-.2,0,.36.42-.17.09.06.46l-.17-.16s.07.14,0,.17l-.19-.26c.13.25-.3,0-.26.16.13-.16.25.16.43.21.07.4-.55-.31-.66,0,0,0,.2,0,.25.11a.5.5,0,0,1-.3-.06c-.09.17.2.14.25.3-.25-.15,0,.15,0,.27l-.18-.16c-.25,0,.34.38.07.4l-.19-.29v.13l-.19-.2c.08.22,0,.21-.11.24.14.09.31.3.26.38s-.15-.18-.21-.06c-.09-.13-.21-.28,0-.17l-.15-.18c-.17-.06-.14.1-.17.14a.07.07,0,0,1,.08,0l.12.37a.4.4,0,0,1-.17-.17s.06.14,0,.19c-.14-.14-.29-.27-.3-.4l0,.29c-.08,0-.24-.09-.28-.16s0,.35-.06.42h0l0,0,0,0a.45.45,0,0,0-.18.07.92.92,0,0,0,.11-.14s0,0,.05,0l0-.06c.22-.35-.63.08-.13-.39l-.16-.11.06,0c0-.13-.22,0-.38.06,0-.06.08-.09.12-.12,0-.24-.05-.23-.44-.08l.17-.18c-.13.07.1-.46-.23-.39l.09-.06c-.35.05.17-.83-.54-.26l-.25.06c.06.17-.31.25-.37.4-.08,0,.08-.31.17-.28l0,0c.36-.31,0-.28.21-.49-.25-.23-.29-.66-.5-.9l-.24.28-.06-.1c0-.08.18-.22.23-.15.12-.18-.22,0-.28.07,0-.21.35-.25.32-.29l-.06,0,0,0c-.15.07-.27.17-.32.09s.14-.18.14-.2,0,0,0,0l-.07-.12-.17.24c-.15.05-.08-.1-.28.17.3-.42-.23-.51-.15-.66-.22.09-.27,0-.33-.07s-.25.29-.28.2c.51-.44.09-.32.39-.71-.18.27-.23-.14-.49.25,0-.09.18-.17.25-.32-.31,0-.15-.41-.37-.52a1.09,1.09,0,0,1-.27.24l.24-.39c-.06,0-.4.32-.23,0,0,.06-.12.15-.16.15,0-.62-.87-.41-.6-1.3-.08.17-.12.15-.15.12s-.16.15-.25.23l.12-.36c-.27.2-.16-.13-.4.07h.08c-.33.2-.53.65-.89,1,.37-.22-.29.61.25.29,0,.09-.13.09-.2.18.17-.12.24-.11.23,0l-.05,0c.2.13.12.34.2.63l.16-.18a.32.32,0,0,1-.06.18c.31-.2-.09-.13.24-.36-.3.39.26.29-.1.71.06.06.18-.21.24-.15l-.09.12.15-.11c0,.06-.1.21-.19.3s-.05,0-.07,0c-.08.17.19.11.16.16v-.12c.26.08.32.42.7.37l.06-.09c.27,0,0,.19.21.26h0c.1,0,.18,0,.21,0-.13.05-.13.24-.28.3.3,0,.2-.06.58-.26l-.11.15c.15-.08.22-.14.32-.11-.17.06-.17.24-.38.33-.16.42.5-.07.13.4.44-.28.09-.32.21-.36s.33-.21.33-.13-.4.54-.28.65,0,0-.05,0,.21,0,.1.16c.26-.19.06.08.35-.19l-.16,0c.13,0,.52-.27.45,0a1,1,0,0,1-.23.11c-.06.11.11,0,0,.12-.3.26-.19-.07-.47.07-.09.15.33-.07,0,.19.45-.33.06.16.44,0l-.18.16s.15-.06.16,0l-.26.17c.25-.11-.05.29.11.25-.12-.12.18-.23.26-.4.38-.06-.37.52-.12.62,0,0,0-.19.14-.23a.68.68,0,0,1-.1.28c.14.08.16-.19.31-.24-.17.24.14,0,.26,0l-.18.16c0,.24.4-.31.38-.06l-.29.18h.12l-.21.18c.21-.07.19,0,.2.1.11-.13.33-.29.39-.24s-.19.14-.08.2c-.13.09-.29.2-.16,0l-.19.13c-.08.16.07.14.11.17a.11.11,0,0,1,0-.08l.36-.11a.29.29,0,0,1-.18.15s.14,0,.19,0c-.15.13-.3.27-.41.28l.27,0c-.06.07-.12.22-.19.26s.43-.11.4.08a.21.21,0,0,1,.11,0c0,.11-.07.35.22.26l-.21.29c.13,0,.25-.38.47-.34s-.19.24-.23.33c.17-.08.5-.25.37,0-.07,0-.05,0-.1,0l-.08.2c-.3.15-.27,0-.42.27.5-.47.28.19.78-.28l-.07.14s0,0,0,0c-.16.3.41-.28.44-.12a.24.24,0,0,1-.14.2l.2,0s-.08.11-.09.08l.15.08h0l.13-.07-.06.11h0l0,0h0l-.06.07c-.54-.36.08.19-.35.08v-.13l-.15-.08.18-.21-.19.2c-.16-.06-.17,0-.38,0,.12.07.61.24.66.44-.06,0-.11,0,0,.14-.18-.16-.17-.08-.21,0l-.24-.22c0,.12.14.23.22.36-.09,0-.28-.1-.45-.23-.14.08.36.19.29.36-.17,0-.13.16-.08.4-.14,0-.14-.15-.23-.18l.14.22s-.07,0-.1-.07.24.21.24.35c.24.25-.52-.2-.3.16-.09,0-.14-.14-.24-.22a1.75,1.75,0,0,0,.22.58l-.24,0c.24.09.38.37.49.59l.25.13,0,.23a.74.74,0,0,1-.21-.22l0,.07c-.13,0-.25-.18-.36-.33l.19.09a2.92,2.92,0,0,0-.4-.45.22.22,0,0,1,0,.1l-.09-.1s0,0,0,.12l-.29-.21.1.1h-.3c.17.35.49.79.45,1.06a3.38,3.38,0,0,0-.55-.5c.29.17,0-.23.14-.27-.06,0-.16-.09-.19-.13l.08.35c-.19-.17-.17-.09-.29-.12.41.31.15.34.21.51-.13-.11-.25-.24-.15-.29-.36-.16.34.5,0,.38,0,0,0,0,0-.08.07.14-.11.17-.2,0v0a.41.41,0,0,0,0,.68l-.43-.42.87,1.18c-.25-.26-1-.76-1-1-.06,0-.14,0-.1.15s.44.29.44.35a2.29,2.29,0,0,0-.56-.23c.09,0,.49.44.43.47s-.43-.37-.46-.43l.32.5a1.91,1.91,0,0,0-.5-.4c.09.06-.1.1-.09.17l.15,0c-.19.08.47.66.33.78-.08-.09-.51-.52-.62-.49a7,7,0,0,1,1,1.32l-.15-.08.06.22c-.28-.35-.82-1.12-1-1.44-.14,0-.16-.11-.21,0a.19.19,0,0,1-.13-.22l-.24.11c.27.22.14.36.35.54l-.09-.43c.27.22.62.75.47.84a4.91,4.91,0,0,1-.52-.49c.07.09.06.26,0,.22l-.09-.17c-.16,0,.23.41-.09.28,0,0-.4-.2-.26-.06a10.4,10.4,0,0,1,1.43,1.2,2.88,2.88,0,0,1-.59-.18c-.27-.15-.48-.54-.71-.67a.74.74,0,0,1,.15.2c-.09,0-.2-.21-.23-.11.25.24-.15.12.19.22,0,.13-.12,0-.18.11a1.7,1.7,0,0,1,.52.7,1.72,1.72,0,0,0-.2-.15c-.14.11-.33.08-.44.21-.07,0-.2,0-.29-.18,0,.06.1.16.07.2-.29-.12.05-.12-.27-.29.14.13.11.28.16.41.25.19.16-.09.11-.22a1.75,1.75,0,0,1,.6.92c0,.18-.25-.13-.22-.07-.23.14.41.65,0,.61s-.41-.35-.57-.46c0-.16.25,0,.29-.09h-.16c0-.08,0-.19,0-.17-.23-.1-.33.3-.63.31,0,.08.07.19.17.24l0-.07c.2.1.15.29.28.29.05.17.17.4,0,.41l-.25-.19c.07.06.19.06.14,0,.07.12-.43-.14-.17.17l.22.07c.06.17.24.46.09.48.27.16,0,0,.31.13-.38-.24.2-.19-.22-.42.36.22.22,0,.55.17-.08-.06-.17-.1-.07-.13l-.06-.07h0a.34.34,0,0,1-.15-.07c-.15-.18,0-.28-.1-.4s.07.09.17.14l-.09-.17c.18.14.38.14.39.32l.09-.08c.14,0,.24,0,.2-.1s-.1-.27,0-.12v-.22l0,0c.14-.11,0-.52.4-.4,0-.08,0-.17.1-.2l.16.11c0-.1.29,0,.16-.2.45.29.33-.19.49-.23l-.19-.17c.08-.06.08-.17.08-.33l-.18-.14c-.07-.19.29-.08.38-.21.05.06,0,.08,0,.06.51.2,0-.53.38-.41,0-.09,0-.09.07-.08a0,0,0,0,0,0,0h0l.13,0-.12,0a.3.3,0,0,0,0-.15l.19.14h0c.1,0-.06-.11-.21-.21l-.07-.14c.32.23,0-.18.33,0-.13-.15.05-.28-.25-.58,0,0,.07,0,.05.07s.15,0,.09-.13l.24.18-.23-.36a.67.67,0,0,1,.42.33c-.16-.37,0-.19-.18-.54l.14.14s-.12-.28,0-.2c.36.17.42-.39.88-.38-.48-.34.29.07,0-.24.11.08.2.1.25.22,0-.2.32,0,.1-.36.12.08.13.16.2.21s0-.12,0-.08.07.1.1.16c.09-.13-.22-.43-.51-.7.19.06.2,0,0-.2.11.07.25.12.22.23s.36-.12.12-.34c.08,0,.07,0,.05-.08s.13-.06.18-.17h-.06c-.25-.29,0-.13,0-.24l0,0c.36,0,0-.16.35-.11l-.19-.15c-.37-.36.36.06.29-.16l-.13-.06c-.09-.17.65.32.75.32s0,.06,0,.1c.34.07-.22-.23-.19-.38.14.1.3.32.39.27s-.24-.57.09-.44c-.12-.07-.24-.14-.27-.25s.15,0,.25,0l0,0,.06,0h0l0,.24c.34-.16.8-.44,1.05-.4a3.56,3.56,0,0,0-.55.5c.2-.27-.21,0-.23-.14,0,.07-.1.16-.15.19l.35-.08c-.19.18-.12.16-.16.27.34-.37.34-.13.5-.18-.12.12-.26.22-.29.13-.2.33.52-.31.35,0,0,0,0,0-.07,0,.14-.06.15.11,0,.19h0c.06.15.31.33.63,0,0,0-.38.34-.45.39l1.22-.8c-.28.24-.85.91-1.09,1,0,.06,0,.14.12.1a1.91,1.91,0,0,1,.39-.41,4.06,4.06,0,0,0-.29.52c0-.08.48-.45.5-.39s-.41.39-.46.42l.5-.29a2.17,2.17,0,0,0-.44.46c.07-.09.08.09.14.08l.06-.13c0,.17.68-.43.77-.3-.1.07-.55.46-.55.57a7.69,7.69,0,0,1,1.38-.89l-.1.13.21,0c-.36.25-1.16.75-1.49.92,0,.13-.13.14,0,.2-.09.13-.21.13-.23.11l.07.22c.24-.24.36-.11.55-.31l-.41.07c.24-.24.79-.56.85-.41a4.66,4.66,0,0,1-.54.47c.1-.07.26,0,.21,0l-.17.07c0,.15.41-.21.25.09,0,0-.25.37-.1.24a11.69,11.69,0,0,1,1.34-1.31,3.41,3.41,0,0,1-.26.55c-.18.24-.58.43-.73.64a1.08,1.08,0,0,1,.2-.13c0,.08-.21.19-.13.21.26-.22.09.14.24-.17.12,0,0,.11.07.16A2,2,0,0,1,248,114a1.3,1.3,0,0,0-.17.19c.08.14,0,.3.13.41a.75.75,0,0,1-.2.27c.05,0,.15-.09.19-.07-.16.27-.1,0-.32.25.15-.13.28-.1.42-.14.21-.22-.06-.15-.2-.11a2.06,2.06,0,0,1,1-.54c.16,0-.17.23-.11.2.11.22.67-.37.58,0s-.39.37-.51.52c-.15,0,0-.23,0-.27l0,.15c-.08,0-.18,0-.14,0-.14.21.23.31.19.59a.56.56,0,0,0,.25-.16h-.07c.13-.19.29-.13.32-.26s.39-.15.38,0l-.21.23C249.49,115.17,249.51,115.06,249.42,115.1Zm-1.84-7.1-.06,0C247.51,107.89,247.54,107.94,247.58,108Zm-6.46-2.32,0,.06C241,105.75,241.06,105.72,241.12,105.68Zm.24,7.06c-.05-.07,0-.06.1,0S241.43,112.76,241.36,112.74Zm-2.81,5.69h0C238.65,118.43,238.61,118.42,238.55,118.43Zm4.41-8.29,0,0,0,0Zm.06,0v0h0Zm-.18,0v0h0v.06s-.09,0-.08-.07Zm0,.4s0,0,0,0Zm-.07.09h0a.33.33,0,0,1-.07-.13c.06,0,.14,0,.13,0h0v0A.45.45,0,0,1,242.73,110.69Zm-.34,0s-.1-.2,0-.12S242.48,110.73,242.39,110.71Zm.33,0,.05,0,0,.1A.16.16,0,0,1,242.72,110.71Zm.07-.06,0,0a.21.21,0,0,1,0,.07S242.79,110.67,242.79,110.65Zm1.5.91,0,0h0l0,0,0,0A.35.35,0,0,0,244.29,111.56Zm.09,0v0l.07,0Zm0-.06a0,0,0,0,1,0,0l.07,0Zm.25-.09s0,0,0,.1S244.58,111.55,244.63,111.46ZM245,111l.08,0a1.06,1.06,0,0,1-.36.33,1.63,1.63,0,0,1,.11-.17,3.12,3.12,0,0,0-.45.34v-.11a1.09,1.09,0,0,1,.17-.13l0,0,.28-.14a2.19,2.19,0,0,0,.15-.22l0,0,0,0,.17,0A1,1,0,0,1,245,111Zm4.54,3.23c0-.11,0-.07,0,0Z"/><path class="cls-6" d="M241.29,109.28h0l0,0Z"/><path class="cls-6" d="M250.14,114.66s.09-.11.11-.09h-.09S250.16,114.62,250.14,114.66Z"/><path class="cls-6" d="M249.6,116.06s0,0,0,0l.08-.08S249.6,116,249.6,116.06Z"/><path class="cls-6" d="M249.71,115.17c-.14.15-.06.13,0,.14h0C249.93,115.12,249.82,115.15,249.71,115.17Z"/><path class="cls-6" d="M249.73,115.32a0,0,0,0,1,0,0C249.85,115.27,249.77,115.32,249.73,115.32Z"/><path class="cls-6" d="M249.74,114.43s.2-.17.15-.1C250.09,114.17,249.55,114.43,249.74,114.43Z"/><polygon class="cls-6" points="249.26 115.59 249.26 115.66 249.43 115.48 249.26 115.59"/><path class="cls-6" d="M249.11,115.25v.1a.1.1,0,0,1,.08,0S249.17,115.19,249.11,115.25Z"/><polygon class="cls-6" points="249.13 115.64 249.15 115.58 249.12 115.53 249.13 115.64"/><path class="cls-6" d="M248.39,114.67c.06,0,.11,0,.16-.09h-.11C248.37,114.62,248.35,114.67,248.39,114.67Z"/><path class="cls-6" d="M248.23,115.25a1.1,1.1,0,0,1,.12-.16l-.23.21Z"/><path class="cls-6" d="M247.83,115.26c.06-.06.18,0,.17-.15C247.93,115.16,247.73,115.19,247.83,115.26Z"/><polygon class="cls-6" points="247.37 113.87 247.39 113.89 247.76 113.53 247.37 113.87"/><path class="cls-6" d="M245.68,113.86c0,.16.24-.19.2,0,.1-.07,0-.14.13-.2C245.87,113.69,245.9,113.61,245.68,113.86Z"/><polygon class="cls-6" points="238.5 102.39 238.41 102.55 238.47 102.52 238.5 102.39"/><path class="cls-6" d="M238.11,102.68l.22-.23-.24.17S238.15,102.63,238.11,102.68Z"/><path class="cls-6" d="M241.3,110s.09,0,.1,0S241.56,109.77,241.3,110Z"/><path class="cls-6" d="M235.54,121.87s.14.14.16.17S235.5,121.83,235.54,121.87Z"/><polygon class="cls-6" points="235.56 121.13 235.62 121.2 235.51 121 235.56 121.13"/><path class="cls-6" d="M235.92,120.74c-.31-.2-.09.18-.25.17l-.07,0,.19.22C235.83,121,235.79,120.73,235.92,120.74Z"/><path class="cls-6" d="M236.62,121.05l0,0,0,0C236.58,121,236.64,120.91,236.62,121.05Z"/><path class="cls-6" d="M236.65,121.07c0,.05.12.05,0,0Z"/><path class="cls-6" d="M236.81,121c.07,0,.13,0,.16.06,0-.1-.07-.14-.21-.2Z"/><path class="cls-6" d="M236.61,120.6l0,.06S236.67,120.68,236.61,120.6Z"/><path class="cls-6" d="M236.63,120.72c-.07-.08,0,0,0,.08l0-.14S236.49,120.56,236.63,120.72Z"/><path class="cls-6" d="M236.38,120.65c-.06.13.15.28.2.14S236.43,120.78,236.38,120.65Z"/><path class="cls-6" d="M235.65,120.48l-.11,0,.06.11S235.74,120.55,235.65,120.48Z"/><path class="cls-6" d="M237,120.52a.49.49,0,0,1,.22.08c-.05,0-.17-.11-.25-.17Z"/><path class="cls-6" d="M237,120.43l0-.15C236.86,120.33,236.9,120.38,237,120.43Z"/><polygon class="cls-6" points="236.44 120.61 236.33 120.31 236.32 120.33 236.44 120.61"/><polygon class="cls-6" points="237.42 120.38 237.53 120.53 237.38 120.29 237.42 120.38"/><path class="cls-6" d="M237.7,120.13c0,.08,0,.1-.16.07.09.12.22.13.26.21S237.76,120.24,237.7,120.13Z"/><path class="cls-6" d="M237.25,120.3l-.19-.12,0,0A.46.46,0,0,0,237.25,120.3Z"/><path class="cls-6" d="M237.06,120.18h0l.06,0Z"/><path class="cls-6" d="M236.32,120c.08.12.2.15.29.32C236.55,120.18,236.52,120,236.32,120Z"/><path class="cls-6" d="M236.85,120.23l0-.17-.09,0S236.82,120.17,236.85,120.23Z"/><polygon class="cls-6" points="236.78 119.99 236.8 120.06 236.84 120.05 236.78 119.99"/><path class="cls-6" d="M237.37,120a.17.17,0,0,1,0-.17.21.21,0,0,0-.15.07C237.26,119.9,237.34,120,237.37,120Z"/><path class="cls-6" d="M237.2,120.05v0S237.18,120,237.2,120.05Z"/><polygon class="cls-6" points="237.64 119.42 237.66 119.45 237.67 119.44 237.64 119.42"/><path class="cls-6" d="M237.19,119.94a.14.14,0,0,1,0-.09s0,0,0,0S237.15,119.88,237.19,119.94Z"/><path class="cls-6" d="M237.63,119.81l-.13,0C237.56,119.81,237.67,119.85,237.63,119.81Z"/><path class="cls-6" d="M237.25,120.06h0S237.28,120.08,237.25,120.06Z"/><path class="cls-6" d="M237.25,120.06a1.33,1.33,0,0,0-.06-.12.14.14,0,0,0,0,.09Z"/><path class="cls-6" d="M237.48,119.17c-.1,0-.32,0-.41-.2s.12,0,.23,0c-.21-.13-.17-.35-.46-.57l0,.16c-.05,0-.09-.12-.15-.13.15.13.22.33,0,.25a3,3,0,0,0,.92.73A.39.39,0,0,1,237.48,119.17Z"/><path class="cls-6" d="M237.79,119.66a.38.38,0,0,0-.13-.21l-.13.11,0,0v0A1,1,0,0,1,237.79,119.66Z"/><path class="cls-6" d="M237.49,119.78h0l-.06-.06c.07,0,0,0,.06.06l0,0h0l0-.2s-.07.05-.11.12c-.14-.16-.16-.28-.37-.4-.06.09.09.17.12.28.07-.16.06.12.23.11a.16.16,0,0,1,0,.1.56.56,0,0,1,.13,0h0Z"/><path class="cls-6" d="M236.26,119.81l0,0a1,1,0,0,1,.38.14,4.21,4.21,0,0,0-.45-.28s.07.09,0,.11-.08-.07-.14-.11S236.13,119.8,236.26,119.81Z"/><path class="cls-6" d="M236.75,119.63v-.18l-.19-.07.09.07C236.57,119.48,236.69,119.56,236.75,119.63Z"/><polygon class="cls-6" points="237.76 119.5 237.92 119.66 237.73 119.39 237.76 119.5"/><polygon class="cls-6" points="237.95 119.37 237.86 119.35 238.01 119.48 237.95 119.37"/><path class="cls-6" d="M240.8,116c.18.08.44.22.27.08l-.18-.13C240.89,116,240.85,116,240.8,116Z"/><path class="cls-6" d="M241.85,112.89l-.06,0,.13.17Z"/><path class="cls-6" d="M239,117.92a.34.34,0,0,0,.19,0C239.08,117.87,238.91,117.78,239,117.92Z"/><path class="cls-6" d="M239.22,117.91c.1,0,.18,0,.1-.11l-.06,0S239.26,117.88,239.22,117.91Z"/><path class="cls-6" d="M238.55,116.62Z"/><path class="cls-6" d="M238.39,118.91h0S238.39,119,238.39,118.91Z"/><path class="cls-6" d="M238.39,118.85l0,0,0-.05A.05.05,0,0,1,238.39,118.85Z"/><path class="cls-6" d="M246.11,107.21h0C246.09,107.13,246.09,107.15,246.11,107.21Z"/><polygon class="cls-6" points="239.77 113.78 239.77 113.79 239.78 113.79 239.77 113.78"/><path class="cls-6" d="M239.74,113.57c.16.23.11.23,0,.22l.5.39Z"/><path class="cls-6" d="M238.17,115.6a.29.29,0,0,1,.13.05S238.21,115.58,238.17,115.6Z"/><path class="cls-6" d="M238.13,119.14c.05,0,.12.07.11.1v-.11S238.18,119.15,238.13,119.14Z"/><path class="cls-6" d="M236.62,118.79s0,0,0,0l.09.07S236.69,118.78,236.62,118.79Z"/><path class="cls-6" d="M237.58,118.77c-.16-.13-.14,0-.15,0h0C237.64,119,237.61,118.87,237.58,118.77Z"/><path class="cls-6" d="M237.42,118.8a.05.05,0,0,1,0,0C237.47,118.93,237.42,118.85,237.42,118.8Z"/><path class="cls-6" d="M238.38,118.66c-.06,0,.18.19.11.15C238.66,119,238.37,118.46,238.38,118.66Z"/><polygon class="cls-6" points="237.04 118.36 237.24 118.51 237.11 118.35 237.04 118.36"/><path class="cls-6" d="M237.48,118.14l-.11,0a.18.18,0,0,1,0,.08S237.54,118.19,237.48,118.14Z"/><polygon class="cls-6" points="237.12 118.23 237.18 118.19 237.06 118.22 237.12 118.23"/><path class="cls-6" d="M238.2,117.3c-.06-.06-.12-.08-.12,0s0,.11.11.15Z"/><path class="cls-6" d="M237.4,117.09l.06.11a.75.75,0,0,1,.18.09Z"/><path class="cls-6" d="M237.44,116.77c.06.06.05.19.16.16C237.55,116.87,237.52,116.66,237.44,116.77Z"/><polygon class="cls-6" points="238.92 116.05 238.91 116.07 239.3 116.41 238.92 116.05"/><path class="cls-6" d="M239.15,114.55c-.05-.14,0-.12-.25-.32-.17,0,.22.23,0,.21C239,114.54,239.09,114.46,239.15,114.55Z"/><polygon class="cls-6" points="250.92 104.66 251.05 104.67 250.89 104.59 250.92 104.66"/><path class="cls-6" d="M251,104.5l-.18-.24s0,.07-.07,0Z"/><path class="cls-6" d="M241.94,110.51l-.18-.08.05.06C241.89,110.54,241.9,110.53,241.94,110.51Z"/></g><g class="cls-5"><path class="cls-6" d="M229.43,96.2s.15-.12.18-.15S229.39,96.23,229.43,96.2Z"/><polygon class="cls-6" points="228.74 96.17 228.81 96.11 228.61 96.2 228.74 96.17"/><path class="cls-6" d="M228.73,96c-.1,0-.33,0-.3-.12-.23.27.16.08.12.23l-.05.06Z"/><path class="cls-6" d="M228.85,95.15s0,0,0,0-.12,0,0,.07Z"/><path class="cls-6" d="M228.85,95.15s.06-.1,0,0Z"/><path class="cls-6" d="M228.85,94.86c-.09,0-.14.06-.22.18l.14,0C228.82,94.94,228.79,94.88,228.85,94.86Z"/><path class="cls-6" d="M228.4,95.18h.06S228.49,95.13,228.4,95.18Z"/><path class="cls-6" d="M228.59,95.14l-.13,0s-.12.13,0,0C228.43,95.23,228.52,95.17,228.59,95.14Z"/><path class="cls-6" d="M228.58,95.21c0,.08,0,.15-.17.19C228.53,95.45,228.7,95.26,228.58,95.21Z"/><path class="cls-6" d="M228.14,96.06l0,.11.12,0C228.16,96.14,228.22,96,228.14,96.06Z"/><path class="cls-6" d="M228.49,94.63c-.06.05-.13.15-.2.22l.1,0A.37.37,0,0,1,228.49,94.63Z"/><path class="cls-6" d="M228.29,94.85l-.14,0C228.18,95,228.23,94.91,228.29,94.85Z"/><polygon class="cls-6" points="228.1 95.45 228.38 95.34 228.09 95.43 228.1 95.45"/><polygon class="cls-6" points="228.47 94.33 228.22 94.46 228.31 94.42 228.47 94.33"/><path class="cls-6" d="M228.17,94.31c.12-.08.15-.2.23-.24a.72.72,0,0,0-.28.09C228.2,94.15,228.22,94.19,228.17,94.31Z"/><path class="cls-6" d="M228.08,94.75v0a.62.62,0,0,0,.12-.19Z"/><path class="cls-6" d="M228.07,94.76h0l0,0A.16.16,0,0,1,228.07,94.76Z"/><path class="cls-6" d="M227.77,95.44c.13-.08.17-.18.35-.26C228,95.23,227.85,95.26,227.77,95.44Z"/><path class="cls-6" d="M228.09,95l-.16,0v.09S228,95,228.09,95Z"/><polygon class="cls-6" points="227.85 95.01 227.93 94.99 227.92 94.96 227.85 95.01"/><path class="cls-6" d="M227.75,94.46a.2.2,0,0,0,0,.14c.05,0,.15-.11.11-.14A.13.13,0,0,1,227.75,94.46Z"/><path class="cls-6" d="M228,94.62h0S228,94.65,228,94.62Z"/><path class="cls-6" d="M227.45,94.21l0,0h0Z"/><path class="cls-6" d="M227.76,94.64s.05,0,.11,0a.11.11,0,0,1-.08,0S227.75,94.64,227.76,94.64Z"/><path class="cls-6" d="M227.81,94.22a.56.56,0,0,0,0,.12C227.8,94.28,227.86,94.19,227.81,94.22Z"/><path class="cls-6" d="M228,94.57s0,0,0,0Z"/><path class="cls-6" d="M228,94.62l0-.05-.12.06S227.92,94.63,228,94.62Z"/><path class="cls-6" d="M227.19,94.35c-.06.09-.07.29-.24.37s0-.11,0-.21c-.16.2-.35.15-.6.42l.15,0s-.13.08-.15.14c.15-.14.34-.2.24,0a3.37,3.37,0,0,0,.82-.83A.46.46,0,0,1,227.19,94.35Z"/><path class="cls-6" d="M227.69,94.07a.58.58,0,0,0-.21.11l.08.13h0A.72.72,0,0,1,227.69,94.07Z"/><path class="cls-6" d="M227.76,94.35h0l0,0h0l-.06.05c0-.06,0-.05.06-.05l0,0h0l-.19,0s0,.07.1.1c-.18.13-.29.14-.43.33.07.06.17-.07.28-.1-.14-.07.11,0,.13-.21a.16.16,0,0,1,.1,0,.3.3,0,0,1,0-.12Z"/><path class="cls-6" d="M227.44,95.57s.09-.06.1,0-.07.07-.12.12.16-.06.19-.18l0,0a1,1,0,0,1,.19-.35A4.23,4.23,0,0,0,227.44,95.57Z"/><path class="cls-6" d="M227.26,95.19l.07-.07c0,.08.11,0,.18-.08l-.16,0Z"/><polygon class="cls-6" points="227.54 94.09 227.72 93.95 227.44 94.12 227.54 94.09"/><polygon class="cls-6" points="227.45 93.92 227.41 94 227.56 93.86 227.45 93.92"/><path class="cls-6" d="M224.73,91.21c.1-.17.27-.41.11-.25l-.14.16C224.75,91.12,224.75,91.16,224.73,91.21Z"/><path class="cls-6" d="M221.93,90.24l.17-.12-.13.06Z"/><path class="cls-6" d="M218.37,88.39l-.19.12S218.29,88.46,218.37,88.39Z"/><path class="cls-6" d="M226.25,92.88c0-.09,0-.14,0-.17C226.21,92.84,226.1,93,226.25,92.88Z"/><path class="cls-6" d="M226.26,92.71c0-.09.05-.17-.09-.09l0,0S226.25,92.67,226.26,92.71Z"/><path class="cls-6" d="M225,93.31Z"/><path class="cls-6" d="M227.08,93.5v0S227.13,93.5,227.08,93.5Z"/><path class="cls-6" d="M227,93.5s0,0,0,0l0,0A.08.08,0,0,1,227,93.5Z"/><path class="cls-6" d="M217.29,86.14v0C217.21,86.16,217.23,86.16,217.29,86.14Z"/><polygon class="cls-6" points="222.49 92.13 222.5 92.13 222.51 92.12 222.49 92.13"/><path class="cls-6" d="M222.29,92.16c.24-.15.23-.11.22,0l.43-.46Z"/><path class="cls-6" d="M226.54,94.18c.13-.06-.2.4.13.16l.1-.2c.17,0,.47-.21.46-.07.19-.24,0,0,.18-.29-.29.35-.16-.18-.43.2.25-.33.05-.2.24-.51-.07.07-.12.16-.14.07l-.07,0h0a1,1,0,0,1-.08.14c-.2.13-.28,0-.4.09s.1-.07.16-.16l-.17.08c.16-.16.19-.35.36-.36l-.06-.08c.05-.13,0-.22-.07-.19s-.26.08-.11,0h-.21l0,0c-.08-.13-.48,0-.31-.38-.07,0-.16,0-.17-.1l.13-.14c-.1,0,0-.28-.16-.16.33-.41-.14-.31-.15-.46l-.19.17c-.05-.06-.15-.07-.29-.07l-.16.16c-.19.06,0-.27-.15-.35.07-.06.08,0,.06,0,.26-.47-.5,0-.34-.35-.08,0-.08,0,0-.07h0s0,0,0,0l0-.12a.48.48,0,0,0,0,.11.22.22,0,0,0-.15,0l.17-.18h0c0-.09-.11,0-.23.19l-.14.06c.26-.29-.17,0,.1-.3-.17.12-.26,0-.58.23,0,0,0-.07.07-.06s0-.13-.11-.08l.21-.22-.37.21a.73.73,0,0,1,.37-.39c-.37.15-.19,0-.53.17l.14-.14s-.28.11-.18,0c.21-.33-.3-.39-.22-.82-.39.44.1-.27-.23,0,.09-.11.12-.19.24-.24-.19,0,0-.3-.32-.1.09-.11.17-.12.22-.19s-.12.06-.07,0,.1-.07.16-.09c-.11-.08-.43.2-.73.47.09-.18,0-.19-.18,0,.08-.11.15-.23.25-.21s-.06-.24-.22-.16a1.38,1.38,0,0,0-.08-.2l.2.15c-.07-.13.49,0,.42-.31,0,0,.05,0,.06.09-.06-.37.89,0,.27-.62l-.06-.27c-.19.1-.27-.29-.44-.33,0-.09.34,0,.31.14L223,88c.33.35.29-.07.53.15.24-.31.69-.41.95-.67l-.3-.22.1-.08c.08,0,.24.16.17.22.18.1,0-.24-.09-.29.23,0,.27.34.32.31l0-.08,0,0c-.07-.14-.18-.25-.1-.32s.19.12.22.11,0,0,0,0l.13-.1-.26-.15c-.06-.15.11-.1-.18-.27.45.26.54-.32.7-.26-.09-.22,0-.29.08-.37-.07,0-.32-.22-.22-.27.47.48.34.05.75.31-.28-.16.15-.27-.27-.49.1,0,.19.16.35.22-.05-.33.43-.23.54-.48-.06-.06-.19-.12-.25-.25l.41.2c0-.07-.34-.39,0-.25-.06,0-.16-.1-.16-.14.66-.09.43-1,1.37-.85-.17-.06-.16-.11-.12-.15s-.16-.15-.26-.23l.39.07c-.22-.26.14-.19-.08-.42v.08c-.22-.32-.7-.47-1-.81.24.37-.64-.23-.31.31-.09,0-.09-.12-.18-.19.12.18.12.24,0,.25l0,0c-.14.23-.37.18-.67.31l.19.14c-.06,0-.13,0-.19,0,.21.3.13-.12.38.2-.41-.26-.31.33-.75,0-.07.08.22.17.15.24l-.12-.08.12.15c-.07,0-.22-.08-.32-.16s0-.06,0-.08c-.19-.05-.11.22-.18.2h.13c-.07.3-.44.41-.39.81l.1.06c0,.29-.2,0-.27.27l0,0c.06.11.06.19,0,.23-.06-.13-.26-.1-.32-.25,0,.31.06.2.27.59l-.16-.1c.1.15.16.21.12.33-.06-.18-.25-.14-.34-.36-.46-.11.07.53-.44.2.31.43.35,0,.39.17s.23.32.14.34-.57-.35-.69-.21c0,0,0,0,0,0-.14,0,0,.22-.17.14.2.25-.08.07.2.35l0-.19c0,.14.3.53,0,.49a.85.85,0,0,1-.12-.23c-.12-.05,0,.12-.12.07-.29-.28.07-.21-.09-.49-.15-.08.09.34-.2,0,.36.42-.17.09.06.46l-.17-.17s.07.15,0,.17l-.18-.25c.12.25-.3,0-.26.16.13-.16.24.16.42.21.07.4-.55-.31-.65,0,0-.05.2,0,.24.11a.52.52,0,0,1-.3-.06c-.09.17.2.14.25.3-.25-.15,0,.15.05.27l-.18-.16c-.26,0,.33.38.07.4L222,87v.13l-.19-.2c.08.22,0,.21-.11.24.14.09.32.3.26.38s-.15-.19-.21-.06c-.09-.13-.21-.28,0-.17l-.14-.18c-.17-.06-.15.1-.18.14a.08.08,0,0,1,.08,0l.12.37a.31.31,0,0,1-.16-.18s0,.15,0,.2c-.13-.14-.29-.27-.3-.4l0,.29c-.07,0-.24-.09-.28-.16s.05.35,0,.42h-.05l-.18.08a.92.92,0,0,0,.11-.14l.06,0-.05-.06c.22-.35-.62.08-.12-.39l-.17-.11.06-.06c-.05-.12-.21,0-.38.07,0-.06.09-.09.12-.12,0-.24-.05-.23-.44-.08l.17-.18c-.13.07.1-.46-.23-.39l.09-.07c-.35.06.17-.82-.54-.25l-.25,0c.07.18-.31.26-.37.41-.08,0,.08-.31.17-.29l0,0c.36-.31,0-.28.21-.49-.25-.24-.29-.66-.5-.9l-.24.28-.06-.1c0-.08.18-.22.23-.15.12-.18-.22,0-.28.07,0-.21.35-.25.33-.29l-.07,0,0,0c-.15.07-.26.17-.32.09s.15-.18.14-.2,0,0,0,0l-.07-.12-.17.24c-.15,0-.08-.11-.28.17.31-.42-.22-.51-.15-.66-.21.08-.27,0-.32-.07s-.26.29-.29.2c.51-.44.1-.33.4-.71-.19.27-.24-.14-.5.25,0-.09.18-.17.25-.33-.31,0-.15-.4-.37-.51a.93.93,0,0,1-.27.24l.24-.39c-.06,0-.39.32-.23,0,0,.06-.11.15-.15.15,0-.62-.88-.42-.6-1.3-.09.16-.13.15-.16.12s-.16.15-.24.23l.11-.36c-.27.2-.16-.13-.4.07h.08c-.32.2-.53.65-.88,1,.37-.23-.3.61.24.29-.05.09-.13.09-.2.18.18-.12.24-.11.23,0l-.05,0c.2.13.12.34.2.62l.16-.17c0,.06,0,.12-.05.18.3-.2-.1-.13.23-.36-.3.39.27.29-.1.71.06.06.18-.21.24-.15l-.09.12.15-.11c0,.06-.1.21-.19.29s-.05,0-.07,0c-.07.17.19.11.16.16V84.6c.27.07.32.42.7.37l.07-.09c.27,0,0,.19.2.26h0q.17-.08.21,0c-.13,0-.12.24-.27.29.29,0,.19,0,.58-.25l-.12.15c.15-.08.22-.14.32-.11-.17.06-.17.24-.38.33-.16.42.5-.07.13.4.44-.29.09-.32.21-.36s.33-.21.33-.13-.4.54-.28.64,0,0-.05,0c-.05.14.21,0,.11.17.25-.19.05.08.35-.19l-.17,0c.13,0,.52-.27.45,0a.8.8,0,0,1-.23.11c-.06.11.11,0,.05.12-.3.26-.18-.07-.47.07-.09.15.33-.08,0,.19.44-.33,0,.16.43,0l-.18.16s.15-.06.17,0l-.27.17c.25-.11,0,.28.11.25-.12-.13.19-.23.26-.4.38-.07-.37.52-.12.61,0,0,0-.18.14-.22a.73.73,0,0,1-.1.28c.15.08.16-.19.31-.24-.17.24.14,0,.26,0l-.18.17c0,.24.4-.31.38-.06l-.29.18h.12l-.21.18c.21-.07.19,0,.2.1.11-.13.33-.29.39-.24s-.19.14-.08.2c-.13.08-.29.19-.16,0a2.31,2.31,0,0,1-.19.14c-.08.16.08.14.11.16s0,0,0-.07l.36-.11a.39.39,0,0,1-.19.15c.05,0,.14,0,.19,0-.15.13-.29.27-.41.28l.27,0c-.06.07-.12.22-.18.25s.42-.1.39.09a.21.21,0,0,1,.11,0c0,.11-.07.35.22.26l-.21.29c.13,0,.26-.38.47-.35s-.19.24-.23.34c.17-.08.5-.25.37,0-.07,0,0,0-.09,0L219,89c-.3.15-.27,0-.42.26.51-.46.28.19.78-.27l-.07.14s0,0,0,0c-.16.3.41-.29.44-.12a.23.23,0,0,1-.13.2l.19,0s-.08.11-.09.08l.15.08h0l.13-.07,0,.11h0s0,0,0,0h0l-.06.07c-.54-.36.08.19-.35.08v-.13l-.15-.08.19-.21-.2.2c-.16-.06-.17,0-.37-.05.11.07.6.24.65.44-.06,0-.11,0-.05.14-.18-.16-.17-.08-.21,0L219,89.7c0,.12.14.23.22.36-.08,0-.28-.11-.45-.23-.14.07.36.19.29.36-.17,0-.13.16-.08.4-.14,0-.14-.15-.23-.19l.14.23s-.07,0-.09-.07.23.21.23.35c.25.25-.52-.2-.3.16-.09,0-.14-.14-.24-.22a2,2,0,0,0,.22.58l-.24-.05A1.07,1.07,0,0,1,219,92l.25.12,0,.23a.67.67,0,0,1-.21-.21l0,.07a.78.78,0,0,1-.35-.33l.18.09a2.92,2.92,0,0,0-.4-.45.22.22,0,0,1,0,.1l-.09-.1s0,0,.06.12l-.3-.22.11.11H218c.18.34.49.79.45,1.06a3.38,3.38,0,0,0-.55-.5c.29.17,0-.23.15-.27-.07,0-.17-.09-.2-.13l.08.35c-.18-.17-.17-.09-.29-.12.41.3.15.34.21.51-.13-.11-.25-.24-.15-.29-.36-.17.34.5,0,.37,0,0,0,0,0-.07.08.14-.11.17-.2,0l0,0a.41.41,0,0,0-.05.68l-.43-.42.88,1.18c-.26-.26-1-.77-1.05-1-.06,0-.14,0-.1.14a1.74,1.74,0,0,1,.44.35,2.49,2.49,0,0,0-.56-.22c.09,0,.49.44.43.47s-.43-.37-.45-.43l.31.5a1.75,1.75,0,0,0-.5-.4c.1.06-.1.1-.09.17l.15,0c-.19.08.47.66.33.78-.08-.09-.5-.52-.62-.49a7,7,0,0,1,1,1.32l-.15-.08.06.21c-.27-.34-.82-1.11-1-1.43-.14,0-.15-.12-.21,0a.21.21,0,0,1-.13-.22l-.23.11c.26.21.13.36.35.54l-.09-.43c.26.22.62.75.46.84a4.12,4.12,0,0,1-.52-.5c.07.1.06.27,0,.23l-.09-.17c-.16,0,.23.41-.09.28,0,0-.4-.2-.25-.06a10.91,10.91,0,0,1,1.42,1.2,2.88,2.88,0,0,1-.59-.18c-.27-.15-.47-.55-.71-.68a1.26,1.26,0,0,1,.15.2c-.09,0-.2-.2-.23-.1.25.23-.14.12.19.22,0,.13-.12,0-.17.11a1.9,1.9,0,0,1,.52.7.76.76,0,0,0-.21-.15c-.14.11-.32.08-.44.2-.07,0-.2,0-.29-.17,0,.06.1.15.08.2-.29-.12,0-.12-.28-.29.14.13.12.28.16.41.25.19.16-.09.11-.22a1.75,1.75,0,0,1,.6.92c0,.18-.24-.13-.21-.07-.23.14.41.65,0,.61s-.41-.35-.57-.46c0-.16.25,0,.29-.09H215c0-.09,0-.19,0-.17-.23-.1-.33.3-.63.31,0,.08.07.19.18.24V97c.2.1.15.29.28.29.06.17.17.4,0,.4l-.25-.18c.07.06.19.06.15,0,.07.13-.44-.13-.17.17l.21.08c.06.17.24.46.09.48.27.16,0,0,.31.13-.37-.24.2-.19-.22-.42.36.22.22,0,.55.17-.07-.06-.17-.1-.07-.13l-.05-.08h0a.51.51,0,0,1-.15-.07c-.14-.18,0-.28-.1-.4s.07.09.17.14l-.09-.17c.18.14.38.14.4.32l.08-.08c.14,0,.24,0,.2-.1s-.09-.27,0-.12v-.22l0,0c.14-.12,0-.52.4-.4,0-.08,0-.17.1-.2l.16.11c0-.1.3,0,.17-.2.44.29.33-.19.48-.23l-.18-.17c.07-.06.07-.18.07-.33L217,95.7c-.08-.2.28-.08.37-.21.06.06,0,.08,0,.06.5.2,0-.53.37-.41,0-.09,0-.09.07-.08v0h0l.13,0-.12,0a.22.22,0,0,0,0-.15l.19.14h0c.1,0-.06-.11-.21-.21a.37.37,0,0,0-.07-.14c.32.23,0-.18.34,0-.14-.15,0-.28-.26-.58,0,0,.07,0,.06.07s.14,0,.08-.14l.25.19-.24-.36a.67.67,0,0,1,.42.33c-.16-.37,0-.19-.18-.54l.14.14s-.11-.28,0-.2c.36.17.42-.39.88-.38-.48-.34.29.07,0-.24.11.08.2.1.26.22,0-.2.31,0,.1-.36.11.08.13.16.2.21s-.06-.12,0-.08.07.1.1.16c.09-.14-.22-.43-.51-.71.19.07.2,0,0-.19.12.07.25.12.22.23s.36-.12.13-.34c.07,0,.06,0,.05-.08s.12-.06.18-.17h-.06c-.26-.3,0-.13,0-.24l0,0c.36,0,0-.16.35-.11l-.19-.15c-.37-.36.36.06.29-.17l-.13,0c-.08-.17.65.32.75.32s0,.06.05.1c.35.07-.22-.23-.19-.38.15.1.3.31.39.27s-.24-.57.09-.44a.55.55,0,0,1-.27-.25s.16,0,.26,0l-.05,0,.06,0h0l0,.24c.35-.16.81-.44,1.05-.4a4.08,4.08,0,0,0-.55.5c.21-.27-.2,0-.23-.14,0,.07-.1.16-.15.18l.35-.07c-.19.17-.11.16-.16.27.34-.37.34-.13.5-.18-.12.12-.25.22-.29.13-.2.33.52-.32.36,0,0,0,0,0-.08,0,.15-.06.15.11,0,.19h0c.06.14.31.33.63,0,0,0-.38.34-.45.39l1.22-.8c-.28.24-.85.91-1.09,1,0,.06,0,.13.12.1a2.19,2.19,0,0,1,.39-.41,4.06,4.06,0,0,0-.29.52c0-.08.48-.45.5-.4a6,6,0,0,1-.46.43l.51-.29a1.8,1.8,0,0,0-.45.46c.07-.09.08.09.14.08l.06-.13c0,.17.68-.43.77-.3-.1.07-.55.46-.55.57a8.06,8.06,0,0,1,1.38-.89l-.1.13.21,0c-.36.25-1.15.75-1.48.92-.06.13-.13.14-.06.2a.22.22,0,0,1-.23.11l.07.22c.24-.24.36-.11.56-.31l-.41.07c.23-.24.78-.56.84-.41a4.66,4.66,0,0,1-.54.47c.1-.07.26,0,.21,0l-.17.07c0,.15.42-.21.25.09,0,0-.24.37-.1.24A12.57,12.57,0,0,1,225,92.33a3.42,3.42,0,0,1-.26.54c-.18.25-.58.44-.73.65a.75.75,0,0,1,.21-.13c0,.08-.22.18-.14.21.26-.22.09.14.24-.17.12,0,0,.11.07.16a2.13,2.13,0,0,1,.73-.47,1.3,1.3,0,0,0-.17.19c.09.13,0,.3.13.41-.05.07-.07.19-.2.27.06,0,.15-.1.19-.07-.15.27-.1,0-.31.25.14-.13.28-.1.41-.14.21-.23-.06-.15-.19-.11a1.91,1.91,0,0,1,.95-.54c.16,0-.16.23-.1.2.1.22.67-.37.57,0s-.38.37-.51.52,0-.23,0-.27l0,.15c-.09,0-.18,0-.15,0-.14.21.23.31.19.59a.56.56,0,0,0,.25-.16h-.06c.12-.19.29-.14.31-.26s.4-.15.38,0l-.21.22C226.6,94.25,226.62,94.14,226.54,94.18Zm-1.84-7.1-.07,0C224.62,87,224.66,87,224.7,87.08Zm-6.47-2.32,0,.06C218.11,84.83,218.17,84.8,218.23,84.76Zm.24,7.06c0-.07,0-.06.1,0S218.54,91.84,218.47,91.82Zm-2.81,5.68h0C215.77,97.51,215.72,97.5,215.66,97.5Zm4.41-8.28a.11.11,0,0,1,0,0l0,0Zm.06,0h0Zm-.18,0v0h0v.06s-.09,0-.08-.07Zm0,.4s0,0,0,0Zm-.08.09h0a.33.33,0,0,1-.07-.13c.06,0,.14,0,.13,0h0v0A.16.16,0,0,1,219.84,89.77Zm-.33,0c0-.06-.1-.2,0-.12S219.6,89.81,219.51,89.79Zm.32,0,0-.05,0,.11S219.86,89.81,219.83,89.79Zm.07-.06,0,0a.21.21,0,0,1,0,.07S219.91,89.75,219.9,89.73Zm1.51.91,0,0h0l0,0,0,0A.41.41,0,0,0,221.41,90.64Zm.08,0v0l.07,0Zm0-.06s0,0,0,0l.07,0Zm.25-.09s0,0,0,.1S221.7,90.63,221.74,90.54Zm.36-.42.08,0a1.06,1.06,0,0,1-.36.33,1,1,0,0,1,.11-.17,3.79,3.79,0,0,0-.45.34v-.11a1.09,1.09,0,0,1,.17-.13l0,0,.29-.14.14-.22,0,0s0,0,0,0l.17,0S222.22,90,222.1,90.12Zm4.54,3.23c0-.11,0-.07,0,0Z"/><path class="cls-6" d="M218.4,88.36h0l0,0Z"/><path class="cls-6" d="M227.26,93.74s.09-.11.1-.09h-.09S227.27,93.7,227.26,93.74Z"/><path class="cls-6" d="M226.71,95.13s0,0,0,0l.08-.08A.09.09,0,0,0,226.71,95.13Z"/><path class="cls-6" d="M226.83,94.25c-.15.14-.07.13,0,.14h0C227,94.2,226.93,94.22,226.83,94.25Z"/><path class="cls-6" d="M226.84,94.39l0,0C227,94.35,226.88,94.39,226.84,94.39Z"/><path class="cls-6" d="M226.85,93.51s.2-.17.15-.1C227.21,93.25,226.66,93.51,226.85,93.51Z"/><polygon class="cls-6" points="226.37 94.67 226.37 94.74 226.54 94.56 226.37 94.67"/><path class="cls-6" d="M226.23,94.32v.11a.12.12,0,0,1,.08,0S226.28,94.27,226.23,94.32Z"/><polygon class="cls-6" points="226.24 94.71 226.26 94.66 226.23 94.61 226.24 94.71"/><path class="cls-6" d="M225.51,93.75a.24.24,0,0,0,.15-.09l-.11,0C225.48,93.7,225.46,93.75,225.51,93.75Z"/><path class="cls-6" d="M225.35,94.33a.51.51,0,0,1,.11-.16l-.23.21Z"/><path class="cls-6" d="M224.94,94.34c.07-.06.18,0,.18-.15C225.05,94.24,224.85,94.27,224.94,94.34Z"/><polygon class="cls-6" points="224.48 92.95 224.5 92.97 224.87 92.61 224.48 92.95"/><path class="cls-6" d="M222.79,92.94c0,.16.24-.2.2,0,.1-.07,0-.14.13-.2C223,92.76,223,92.69,222.79,92.94Z"/><polygon class="cls-6" points="215.61 81.47 215.52 81.62 215.58 81.6 215.61 81.47"/><path class="cls-6" d="M215.22,81.76l.22-.23-.24.17S215.26,81.7,215.22,81.76Z"/><path class="cls-6" d="M218.41,89.11s.09,0,.1,0S218.68,88.85,218.41,89.11Z"/><path class="cls-6" d="M212.66,101s.13.14.15.17S212.61,100.91,212.66,101Z"/><polygon class="cls-6" points="212.67 100.21 212.73 100.28 212.63 100.08 212.67 100.21"/><path class="cls-6" d="M213,99.82c-.31-.2-.09.18-.24.17l-.08,0,.19.22C213,100.05,212.9,99.81,213,99.82Z"/><path class="cls-6" d="M213.73,100.13l0,0a.11.11,0,0,1,.05,0C213.69,100,213.76,100,213.73,100.13Z"/><path class="cls-6" d="M213.76,100.15s.12,0,0,0Z"/><path class="cls-6" d="M213.92,100c.07,0,.13,0,.16.06,0-.1-.07-.14-.2-.2Z"/><path class="cls-6" d="M213.72,99.68l0,.06S213.78,99.76,213.72,99.68Z"/><path class="cls-6" d="M213.74,99.8c-.07-.08,0,0,0,.07l0-.13C213.69,99.71,213.6,99.64,213.74,99.8Z"/><path class="cls-6" d="M213.49,99.72c-.05.14.15.29.21.15S213.54,99.86,213.49,99.72Z"/><path class="cls-6" d="M212.77,99.56l-.12,0,.06.11S212.85,99.63,212.77,99.56Z"/><path class="cls-6" d="M214.1,99.6a.49.49,0,0,1,.22.08c0-.05-.17-.11-.25-.17Z"/><path class="cls-6" d="M214.07,99.51l0-.15C214,99.4,214,99.45,214.07,99.51Z"/><polygon class="cls-6" points="213.55 99.69 213.44 99.39 213.43 99.41 213.55 99.69"/><polygon class="cls-6" points="214.54 99.45 214.64 99.6 214.49 99.37 214.54 99.45"/><path class="cls-6" d="M214.81,99.21c0,.08,0,.1-.16.07.09.12.22.13.26.21S214.87,99.32,214.81,99.21Z"/><path class="cls-6" d="M214.36,99.38l-.19-.12,0,0A.46.46,0,0,0,214.36,99.38Z"/><path class="cls-6" d="M214.17,99.26h0l.06,0Z"/><path class="cls-6" d="M213.43,99.06c.09.12.2.15.29.32C213.66,99.26,213.63,99.1,213.43,99.06Z"/><path class="cls-6" d="M214,99.31l-.06-.17-.09,0S213.94,99.25,214,99.31Z"/><polygon class="cls-6" points="213.89 99.06 213.91 99.14 213.95 99.13 213.89 99.06"/><path class="cls-6" d="M214.48,99a.17.17,0,0,1,0-.17.21.21,0,0,0-.15.07S214.45,99.07,214.48,99Z"/><path class="cls-6" d="M214.32,99.13v0S214.29,99.1,214.32,99.13Z"/><polygon class="cls-6" points="214.75 98.5 214.78 98.53 214.78 98.52 214.75 98.5"/><path class="cls-6" d="M214.3,99a.12.12,0,0,1,0-.09s0,0,0,0S214.26,99,214.3,99Z"/><path class="cls-6" d="M214.74,98.89a.61.61,0,0,0-.13,0C214.67,98.89,214.78,98.93,214.74,98.89Z"/><path class="cls-6" d="M214.37,99.14h0S214.39,99.16,214.37,99.14Z"/><path class="cls-6" d="M214.37,99.14,214.3,99a.28.28,0,0,0,0,.09Z"/><path class="cls-6" d="M214.59,98.25c-.1,0-.32,0-.41-.2s.12,0,.24,0c-.22-.13-.18-.35-.47-.57l0,.16s-.09-.12-.15-.13c.15.13.22.33,0,.25a3,3,0,0,0,.92.73A.39.39,0,0,1,214.59,98.25Z"/><path class="cls-6" d="M214.9,98.74a.38.38,0,0,0-.13-.21l-.13.11,0,0v0S214.75,98.68,214.9,98.74Z"/><path class="cls-6" d="M214.6,98.85h0l0-.06c.06,0,0,0,0,.06l0,0h0l0-.2c-.05,0-.07,0-.11.12-.14-.16-.15-.29-.37-.4,0,.09.09.17.12.28.07-.16.06.11.24.1a.31.31,0,0,1,0,.11.28.28,0,0,1,.13,0Z"/><path class="cls-6" d="M213.37,98.89l0,0a.92.92,0,0,1,.38.14,4.21,4.21,0,0,0-.45-.28s.07.09,0,.11-.08-.07-.13-.11A.22.22,0,0,0,213.37,98.89Z"/><path class="cls-6" d="M213.86,98.71v-.18l-.19-.07.09.07C213.68,98.56,213.8,98.64,213.86,98.71Z"/><polygon class="cls-6" points="214.87 98.58 215.03 98.74 214.84 98.47 214.87 98.58"/><polygon class="cls-6" points="215.06 98.45 214.97 98.43 215.12 98.56 215.06 98.45"/><path class="cls-6" d="M217.91,95.1c.18.08.44.22.27.08l-.18-.13C218,95.11,218,95.11,217.91,95.1Z"/><path class="cls-6" d="M219,92l-.06,0,.13.17Z"/><path class="cls-6" d="M216.15,97a.26.26,0,0,0,.18,0C216.19,97,216,96.86,216.15,97Z"/><path class="cls-6" d="M216.33,97c.1,0,.18,0,.1-.12h-.06S216.37,97,216.33,97Z"/><path class="cls-6" d="M215.66,95.7Z"/><path class="cls-6" d="M215.5,98h0S215.51,98,215.5,98Z"/><path class="cls-6" d="M215.5,97.93s0,0,0,0l0,0A.09.09,0,0,1,215.5,97.93Z"/><path class="cls-6" d="M223.22,86.29h0C223.2,86.21,223.2,86.23,223.22,86.29Z"/><polygon class="cls-6" points="216.88 92.86 216.88 92.87 216.89 92.87 216.88 92.86"/><path class="cls-6" d="M216.85,92.65c.16.22.12.23,0,.22l.51.38Z"/><path class="cls-6" d="M215.29,94.68a.28.28,0,0,1,.12,0S215.33,94.66,215.29,94.68Z"/><path class="cls-6" d="M215.25,98.22s.11.07.1.09v-.1S215.29,98.23,215.25,98.22Z"/><path class="cls-6" d="M213.73,97.87s0,0,0,0l.09.07A.09.09,0,0,0,213.73,97.87Z"/><path class="cls-6" d="M214.69,97.84c-.16-.12-.14,0-.15,0h0C214.75,98.06,214.72,98,214.69,97.84Z"/><path class="cls-6" d="M214.53,97.88a.05.05,0,0,1,0,.05C214.58,98,214.53,97.93,214.53,97.88Z"/><path class="cls-6" d="M215.49,97.74c-.06,0,.18.19.11.14C215.77,98.08,215.48,97.54,215.49,97.74Z"/><polygon class="cls-6" points="214.15 97.44 214.35 97.59 214.22 97.43 214.15 97.44"/><path class="cls-6" d="M214.6,97.22l-.12,0a.18.18,0,0,1,.05.08S214.65,97.27,214.6,97.22Z"/><polygon class="cls-6" points="214.24 97.31 214.29 97.27 214.18 97.3 214.24 97.31"/><path class="cls-6" d="M215.31,96.38c-.06-.06-.11-.08-.11,0s0,.11.1.15Z"/><path class="cls-6" d="M214.51,96.17l.06.11a.6.6,0,0,1,.18.09Z"/><path class="cls-6" d="M214.56,95.85c.05.06,0,.18.16.16C214.66,96,214.63,95.74,214.56,95.85Z"/><polygon class="cls-6" points="216.03 95.13 216.02 95.15 216.41 95.48 216.03 95.13"/><path class="cls-6" d="M216.26,93.63c0-.14,0-.12-.24-.32-.18,0,.21.23,0,.21C216.12,93.62,216.2,93.54,216.26,93.63Z"/><polygon class="cls-6" points="228.03 83.74 228.16 83.75 228 83.67 228.03 83.74"/><path class="cls-6" d="M228.1,83.58l-.18-.24s0,.07-.07,0Z"/><path class="cls-6" d="M219.05,89.59l-.18-.08.06.06C219,89.62,219,89.61,219.05,89.59Z"/></g><path class="cls-1" d="M217.3,63.12s-29.49-.68-30.07-.23c-1.44,1.13-8.3,67.79-8.3,67.79l6.34.39Z"/><path class="cls-7" d="M217.3,63.12s-29.49-.68-30.07-.23c-1.44,1.13-8.3,67.79-8.3,67.79l6.34.39Z"/><polygon class="cls-7" points="185.24 79.08 256.68 83.44 258.62 63.93 186.16 62.52 185.24 79.08"/><polygon class="cls-8" points="177.35 137.65 221.52 32.42 168.76 32.6 161.53 22.44 128.99 26.43 106.61 6.18 52.81 104.31 86.73 121.2 118.98 118.39 131.36 138.21 177.35 137.65"/><polygon class="cls-6" points="109.37 17.91 125.95 32.16 158.89 29.07 167.07 37.91 212.92 37.92 173.02 130.93 132.79 132.14 122.06 111.46 89.33 114.47 63.73 101.14 109.37 17.91"/><path class="cls-9" d="M185,49.85c-6.56,1.51-5.09,9.54-5.09,9.54,3.24,16.24-14,15.63-30.08,2.1-4.21-3.55-19.11-.77-11.11,21.36,2,5.44,1.37,13.6-3.49,15.35-14.78,5.32-16.51-19.14-29.61-19.36a16.57,16.57,0,0,0-15,9.39s-1.47,5-3.45,7.65"/><circle class="cls-8" cx="136.39" cy="72.19" r="3.04"/><circle class="cls-8" cx="115.94" cy="85.79" r="3.04"/><polygon class="cls-10" points="168.76 32.6 131.36 138.21 118.98 118.39 161.53 22.44 168.76 32.6"/><polygon class="cls-11" points="128.99 26.43 87.06 121.2 52.81 104.31 106.61 6.18 128.99 26.43"/><ellipse class="cls-5" cx="188.33" cy="49.02" rx="1.43" ry="3.83" transform="translate(105.22 224.98) rotate(-79.31)"/><line class="cls-12" x1="204.4" y1="7.58" x2="188.33" y2="49.02"/><circle class="cls-13" cx="203.87" cy="10.33" r="10.08"/><circle class="cls-14" cx="203.87" cy="10.33" r="10.08"/><circle class="cls-15" cx="204.4" cy="7.58" r="7.58"/><ellipse class="cls-5" cx="84.37" cy="100.19" rx="3.83" ry="1.43" transform="translate(-17.13 17.4) rotate(-10.69)"/><line class="cls-12" x1="68.31" y1="58.76" x2="84.37" y2="100.19"/><circle class="cls-13" cx="68.83" cy="61.5" r="10.08"/><circle class="cls-16" cx="68.83" cy="61.5" r="10.08"/><circle class="cls-17" cx="68.31" cy="58.76" r="7.58"/><polygon class="cls-18" points="68.83 54.8 64.17 59.29 64.17 65.82 66.86 65.82 66.86 60.66 70.8 60.66 70.8 65.82 73.5 65.82 73.5 59.29 68.83 54.8"/></g></g></svg>