<svg xmlns="http://www.w3.org/2000/svg" viewBox="0 0 225.89 168.47"><defs><style>.cls-1{fill:#c7e0f7;}.cls-11,.cls-2,.cls-5,.cls-9{fill:#078cea;}.cls-2,.cls-4{opacity:0.1;}.cls-3{fill:#fff;}.cls-6{opacity:0.2;}.cls-7{opacity:0.25;}.cls-8{fill:#39a3ee;}.cls-9{opacity:0.3;}.cls-10{fill:#fcbd00;}.cls-10,.cls-11{stroke:#efeaea;stroke-miterlimit:10;stroke-width:2.55px;}.cls-12{fill:#ff8517;}.cls-13{fill:#efeaea;}</style></defs><title>tickets</title><g id="Layer_2" data-name="Layer 2"><g id="WIREFRAME"><path class="cls-1" d="M1.11,159.54c-4.78-5.74,7.13-11.38,12.25-11.23,4.79.14,5.6-4.43,4.54-6.62-8.1-16.75,16.54-20.29,20-22.88,14.69-11.13,6.91-34.17,29.56-43.58,10.71-4.45,26-5.33,43.09,12.63,12.08,12.7,21.3,8.4,34.25-1,19.66-14.32,30.61,8.52,33.44,17.21,5.23,16.06-.84,31.72,18.6,34.45,5.72.8,32.62,12.89,28.71,22.6-2.12,5.26-53,.56-76.63,6-23.24,5.3-51.92-6.08-60.8-6.87s-22.33.29-38.22,2.88S4.73,163.9,1.11,159.54Z"/><path class="cls-2" d="M208.3,157.12a173.19,173.19,0,0,0-35,0c-7.45.65-38.51,8.8-60.74,0-23.15-9.18-55.25-.3-57.22,0-34.27,5.13-47,2.71-48.88,0C2.85,151.93,20.22,149,23,147.05a20.19,20.19,0,0,0,7.83-9.46c.76-1.76.76-3.76,1.49-5.53,1.35-3.23,1.3-6.5,4.72-7.25s9.88,5,13.91-.44c2.86-3.87,0-15.74,4.95-21.15L53.1,88c-5.64,10.5-5.37,23.37-15.25,30.85-3.41,2.59-28,6.13-20,22.88.86,1.78.49,5.13-2.25,6.25a5.45,5.45,0,0,1-1.43.35,8,8,0,0,1-.86,0c-3.58-.1-10.48,2.63-12.67,6.24a5.21,5.21,0,0,0,.42,5h0c3.63,4.36,32.85,6.13,48.74,3.54s29.34-3.68,38.22-2.88,37.56,12.17,60.8,6.87c23.67-5.41,74.51-.71,76.63-6a5.28,5.28,0,0,0,.37-2.06C221.82,158.41,216.09,157.77,208.3,157.12Z"/><path class="cls-3" d="M193.43,115.33l11.44,12.81-24.52,21.31-10.64-11.27,23.72-22.85m.06-1.69-.87.84L168.9,137.34l-.84.8.8.85,10.63,11.26.77.82.85-.74L205.64,129l.9-.78-.79-.89L194.3,114.55l-.81-.91Z"/><g class="cls-4"><polygon class="cls-3" points="180.34 149.45 169.71 138.18 193.43 115.33 204.87 128.14 180.34 149.45"/></g><polygon class="cls-3" points="180.34 149.45 169.71 138.18 193.43 115.33 204.87 128.14 180.34 149.45"/><g class="cls-4"><polygon class="cls-5" points="180.34 149.45 169.71 138.18 193.43 115.33 204.87 128.14 180.34 149.45"/></g><g class="cls-6"><path class="cls-5" d="M193.43,115.33l11.44,12.81-24.52,21.31-10.64-11.27,23.72-22.85m.06-1.69-.87.84L168.9,137.34l-.84.8.8.85,10.63,11.26.77.82.85-.74L205.64,129l.9-.78-.79-.89L194.3,114.55l-.81-.91Z"/></g><g class="cls-6"><path class="cls-5" d="M191.38,127.38c.05,0,.07-.08,0-.08-1.66-.12-11.28-.77-20.09,12.59l6,6.33S177.37,130.06,191.38,127.38Z"/></g><g class="cls-6"><path class="cls-5" d="M199.27,129a.76.76,0,0,0-.26-.29c-.08,0-.13,0-.13,0a1.72,1.72,0,0,0-.45-.22c-.3-.13-.76-.32-1.3-.53,0,0,0,0,0,0v-.07l0-.21,0-.43-.11-1-.12-1.07,0-.29a.31.31,0,0,0-.11-.19.16.16,0,0,0-.09-.05l-.06,0-.55-.21a.24.24,0,0,0-.32.19.8.8,0,0,0,0,.21v2.49h0l-.2-.08-1.09-.41-.17-.57A.44.44,0,0,0,194,126a.64.64,0,0,0-.19-.08l-.38-.14a.24.24,0,0,0-.27.07.33.33,0,0,0-.08.31l0,.4.1.73-.71.62-.19.18a.3.3,0,0,0-.09.34.25.25,0,0,0,.12.13l.15.06.39.14a.37.37,0,0,0,.18,0l.08,0,.05,0,.18-.11.33-.21.93.34.37.14h0l0,0-.2.21-1.52,1.71a.28.28,0,0,0,0,.43l.3.11.25.09.14,0a.29.29,0,0,0,.22,0l.09-.06.05-.05.1-.09.21-.19.4-.37,1.45-1.32s0,0,0,0l.14,0,.26.1.51.18.89.31.08,0h0a.68.68,0,0,0,.73-.34A.71.71,0,0,0,199.27,129Z"/></g><path class="cls-1" d="M160.22,138c2.94-1.47,11.85-2.47,15-1.58,8.63,2.43,10,9,17.19,13.69L178,153.6"/><g class="cls-7"><path class="cls-8" d="M192.43,150.07c0,.06-.51-.18-1.33-.68a21.34,21.34,0,0,1-3.16-2.57c-1.24-1.2-2.55-2.77-4.06-4.39a24.8,24.8,0,0,0-2.51-2.37,17.85,17.85,0,0,0-3.09-2c-.56-.28-1.14-.5-1.71-.74s-1.17-.41-1.72-.53a16.09,16.09,0,0,0-3.38-.29,47.2,47.2,0,0,0-5.89.39c-1.67.21-3,.48-3.93.69a6.24,6.24,0,0,1-1.43.34c0-.06.41-.38,1.31-.73a23.73,23.73,0,0,1,3.94-1,38.7,38.7,0,0,1,6-.63,15.85,15.85,0,0,1,3.63.25c.64.15,1.22.37,1.84.56s1.22.48,1.82.78a17.58,17.58,0,0,1,3.27,2.1,22.78,22.78,0,0,1,2.57,2.52c1.52,1.7,2.74,3.29,3.89,4.52C190.74,148.79,192.53,149.91,192.43,150.07Z"/></g><path class="cls-3" d="M32.62,117.71l12.75,29.88-14,6.66L16.92,124.67l15.7-7m.62-1.56-1.09.48-15.71,7-1.11.5.53,1.09,14.48,29.59.51,1,1-.5,14-6.66,1-.49-.44-1L33.7,117.25l-.46-1.1Z"/><g class="cls-4"><polygon class="cls-3" points="45.37 147.59 31.39 154.25 16.91 124.67 32.62 117.7 45.37 147.59"/></g><polygon class="cls-3" points="45.37 147.59 31.39 154.25 16.91 124.67 32.62 117.7 45.37 147.59"/><g class="cls-4"><polygon class="cls-5" points="45.37 147.59 31.39 154.25 16.91 124.67 32.62 117.7 45.37 147.59"/></g><g class="cls-6"><path class="cls-5" d="M32.62,117.71l12.75,29.88-14,6.66L16.92,124.67l15.7-7m.62-1.56-1.09.48-15.71,7-1.11.5.53,1.09,14.48,29.59.51,1,1-.5,14-6.66,1-.49-.44-1L33.7,117.25l-.46-1.1Z"/></g><g class="cls-6"><path class="cls-5" d="M27.76,130.32c0-.06-.05-.1-.07-.06-.63,1.55-4.19,10.5,5.82,23l7.85-3.74S26,144.48,27.76,130.32Z"/></g><g class="cls-6"><path class="cls-5" d="M31.69,123.3a.57.57,0,0,0-.35.16.44.44,0,0,0-.08.1,2.25,2.25,0,0,0-.34.37c-.21.24-.54.62-.91,1.07l0,0h-.07l-.2-.05-.43-.09-.94-.19-1.06-.22-.28,0a.28.28,0,0,0-.22,0,.27.27,0,0,0-.08.07l0,0-.37.46a.24.24,0,0,0,.08.36.91.91,0,0,0,.2.08l.13,0,.54.17,1.13.36.57.17s0,0,0,0l-.14.17-.73.91h-.59a.37.37,0,0,0-.27.06.84.84,0,0,0-.14.15l-.25.32a.22.22,0,0,0,0,.28.33.33,0,0,0,.27.17l.4.07.72.14.38.86.1.24a.34.34,0,0,0,.3.19.33.33,0,0,0,.16-.07l.1-.13.26-.33a.34.34,0,0,0,0-.17.28.28,0,0,0,0-.09v-.06l-.06-.2-.09-.38.61-.78.24-.31h0l0,0,.15.25,1.16,2a.26.26,0,0,0,.41.08l.21-.25.16-.21.09-.12a.33.33,0,0,0,0-.22l0-.1,0-.06-.05-.13-.12-.25-.22-.5L31.21,126s0,0,0,0l.09-.11.17-.23.32-.42.58-.76,0-.06h0a.69.69,0,0,0-.1-.8A.71.71,0,0,0,31.69,123.3Z"/></g><path class="cls-3" d="M16,118l20.26,25.4-11.7,10.15L2.75,128.89,16,118m.18-1.66-.92.76L2,128l-.95.77.81.91,21.85,24.65.76.87.88-.76,11.7-10.16.85-.73-.7-.88L17,117.26l-.74-.93Z"/><g class="cls-4"><polygon class="cls-3" points="36.29 143.39 24.59 153.54 2.75 128.89 16.03 117.99 36.29 143.39"/></g><polygon class="cls-3" points="36.29 143.39 24.59 153.54 2.75 128.89 16.03 117.99 36.29 143.39"/><g class="cls-4"><polygon class="cls-5" points="36.29 143.39 24.59 153.54 2.75 128.89 16.03 117.99 36.29 143.39"/></g><g class="cls-6"><path class="cls-5" d="M16,118l20.26,25.4-11.7,10.15L2.75,128.89,16,118m.18-1.66-.92.76L2,128l-.95.77.81.91,21.85,24.65.76.87.88-.76,11.7-10.16.85-.73-.7-.88L17,117.26l-.74-.93Z"/></g><g class="cls-6"><path class="cls-5" d="M14.7,131.44c0-.05-.07-.07-.07,0-.2,1.65-1.25,11.24,11.74,20.59l6.57-5.7S16.8,145.56,14.7,131.44Z"/></g><g class="cls-6"><path class="cls-5" d="M16.62,123.63a.57.57,0,0,0-.29.25.23.23,0,0,0,0,.12,2.54,2.54,0,0,0-.23.45c-.14.28-.35.74-.59,1.27a0,0,0,0,1,0,0h-.07l-.2,0-.44,0-1,.07-1.07.07-.3,0a.35.35,0,0,0-.19.1.18.18,0,0,0-.06.09l0,.06-.23.54a.24.24,0,0,0,.17.33c.07,0,.19,0,.22,0h.13l.57,0,1.19,0,.59,0s0,0,0,0l-.09.2-.45,1.07-.58.15a.39.39,0,0,0-.24.12,1.21,1.21,0,0,0-.1.19l-.15.37a.25.25,0,0,0,.06.28.34.34,0,0,0,.31.09l.4,0,.73-.06.6.73.16.2a.3.3,0,0,0,.34.1.22.22,0,0,0,.13-.1l.07-.16.16-.38a.28.28,0,0,0,0-.18l0-.09,0,0-.1-.19-.2-.34.38-.91.15-.36h0l0,0,.21.2,1.65,1.6a.27.27,0,0,0,.42,0l.13-.3.1-.25a.59.59,0,0,0,.05-.13.3.3,0,0,0,0-.23.28.28,0,0,0-.06-.09l0,0-.09-.11-.18-.21-.35-.42-1.26-1.5s0,0,0,0l.06-.14.1-.26.21-.5.35-.88,0-.07h0a.7.7,0,0,0-.31-.74A.74.74,0,0,0,16.62,123.63Z"/></g><path class="cls-1" d="M19.29,153.88c.37-3.27,2.46-8.34,4.93-10.51,6.73-5.93,15.32-.58,23.14-4.11,3.59-1.61,9.43,1.59,11.18-1.94v17.61H21.17"/><g class="cls-7"><path class="cls-8" d="M47.36,139.26c0,.07-.41.31-1.25.7-.42.18-1,.32-1.6.52a18.28,18.28,0,0,1-2.19.38,38.2,38.2,0,0,1-5.75.09,31.08,31.08,0,0,0-6.82.28A11.36,11.36,0,0,0,24,144.31,18,18,0,0,0,21,149c-1.32,2.92-1.59,4.91-1.75,4.89s-.12-2.09,1.06-5.18a17.26,17.26,0,0,1,2.9-5,12,12,0,0,1,6.29-3.45,28.49,28.49,0,0,1,7.08-.21,48.44,48.44,0,0,0,5.63.13C45.46,140,47.28,139.06,47.36,139.26Z"/></g><path class="cls-9" d="M176.47,98.28c-5.23-8.81-20.16-29.1-30.07-21.89-12.17,8.86-23.32,54-34.68,42.09C95.64,101.59,81.09,55,71,59.19,61.37,63.2,51.39,92,48.86,99L60,150.41l27.64-9v6.26l54.1-1.6v-4.15L157,147.68Z"/><path class="cls-5" d="M105.41,27.61c1.75-.39,12.68-17.35,13.31-19.15s-8.38-7.78-9.45-6.73-9.66,22.45-8.7,23.43S103.66,28,105.41,27.61Z"/><path class="cls-5" d="M89,24.92C89.47,23.65,82.55.55,81.26,0S71.44,4.38,71,5.56,83.6,26.66,84.47,27,88.47,26.19,89,24.92Z"/><path class="cls-5" d="M77.75,34.37c-1.18-.72-17.18-10.61-18.67-10.12s-2.65,7.41-2.29,9.48,19.62,5.4,20.28,4.56S78.93,35.09,77.75,34.37Z"/><polygon class="cls-10" points="152.61 139.61 109.66 125.41 134.7 42.2 178.93 55.13 152.61 139.61"/><path class="cls-3" d="M148.94,67.84c.12-.1.08-.3,0-.24-4.5,2-30.5,14-33.45,60.21L140,136.08S116.51,94.05,148.94,67.84Z"/><path class="cls-3" d="M140.57,78.24a.09.09,0,0,0-.06-.16c-3.81,1-25.81,7.2-24.29,37.63l25.47,7.14S114.14,93.42,140.57,78.24Z"/><path class="cls-3" d="M167.3,63a1.61,1.61,0,0,0-1-.32c-.24,0-.35.06-.34.08a5.81,5.81,0,0,0-1.39.1c-.87.1-2.23.29-3.81.52,0,0-.09,0-.11,0l-.11-.15-.33-.46-.71-1-1.56-2.14c-.55-.75-1.14-1.54-1.75-2.38l-.48-.64a.82.82,0,0,0-.8-.32l-.19,0-1.6.25a.67.67,0,0,0-.5.9,3.23,3.23,0,0,0,.27.51l.19.33.79,1.35,1.64,2.8c.28.46.55.93.83,1.4,0,0,0,.06,0,0l-.6.1-3.15.51-1.2-1.12a1.16,1.16,0,0,0-.64-.37,2,2,0,0,0-.58.06l-1.08.18a.69.69,0,0,0-.56.55.92.92,0,0,0,.25.84l.67.89c.41.52.82,1.06,1.23,1.6-.26.79-.54,1.61-.82,2.45l-.23.68a.85.85,0,0,0,.27.94.63.63,0,0,0,.44.14,4.23,4.23,0,0,0,.46-.07l1.11-.19a.81.81,0,0,0,.42-.26,1.16,1.16,0,0,0,.16-.21l.07-.13.27-.51.5-1,2.68-.45,1.06-.18s0,0,0,0l0,.12-.16.79c-.44,2.13-.87,4.19-1.28,6.16a.75.75,0,0,0,.7.94l.88-.15.71-.12.4-.08a.85.85,0,0,0,.48-.38,1,1,0,0,0,.13-.27l.05-.18.12-.37c.08-.24.16-.48.23-.72.16-.48.31-.95.46-1.42.58-1.84,1.13-3.56,1.63-5.14,0-.06,0-.07.09-.07l.39-.07.76-.14,1.45-.27,2.56-.48.22,0v0a1.9,1.9,0,0,0,1.28-1.81A2,2,0,0,0,167.3,63Z"/><polygon class="cls-11" points="108.07 131.76 63.9 139.57 47.49 54.01 92.94 43.64 108.07 131.76"/><path class="cls-3" d="M71.55,72.93c.06-.13-.06-.29-.13-.19C68.63,76.31,52.74,98.51,70,138l23.33-4.79S56.52,108.52,71.55,72.93Z"/><path class="cls-3" d="M87.22,57.84a1.71,1.71,0,0,0-1.06.17c-.2.12-.28.22-.27.23A6,6,0,0,0,84.7,59c-.73.49-1.86,1.27-3.17,2.19a.11.11,0,0,1-.11,0l-.17-.09-.5-.26-1.07-.55-2.35-1.2-2.64-1.33L74,57.36a.92.92,0,0,0-.61,0,.79.79,0,0,0-.26.13l-.15.1-1.31,1a.68.68,0,0,0-.05,1,3.88,3.88,0,0,0,.47.33l.32.21,1.31.85,2.74,1.76,1.36.88s0,0,0,0l-.49.36-2.58,1.87-1.58-.46a1.13,1.13,0,0,0-.73,0,2,2,0,0,0-.5.31l-.89.65a.68.68,0,0,0-.24.75.88.88,0,0,0,.6.63l1,.49,1.82.88c.12.82.24,1.68.36,2.56l.1.71a.85.85,0,0,0,.67.71.62.62,0,0,0,.46-.07c.14-.08.34-.24.38-.26l.9-.68a.9.9,0,0,0,.27-.42,2.17,2.17,0,0,0,0-.25v-.73l0-1.09,2.18-1.61c.3-.21.59-.43.87-.64,0,0,0,0,0,0l0,.12.2.77c.57,2.11,1.11,4.14,1.64,6.08a.75.75,0,0,0,1,.53l.72-.53.59-.43.32-.25a.92.92,0,0,0,.26-.55.9.9,0,0,0,0-.3l0-.19-.06-.38c0-.26-.08-.51-.11-.75q-.12-.75-.24-1.47c-.31-1.91-.59-3.69-.86-5.33,0,0,0-.08.05-.1l.32-.24L85,63.8l1.18-.89,2.06-1.58.18-.14h0A1.9,1.9,0,0,0,88.7,59,2,2,0,0,0,87.22,57.84Z"/><polygon class="cls-6" points="134.76 43.64 110.01 122.09 95.19 44.48 80.1 47.92 87.17 134.09 110.12 130.03 109.66 124.01 144.63 135.57 150.34 48.2 134.76 43.64"/><polygon class="cls-12" points="87.16 36.56 141.48 36.51 140.2 136.79 91.11 138.19 87.16 36.56"/><path class="cls-13" d="M140.19,37.79l-1.25,97.76-46.6,1.33-3.85-99,51.7-.05m2.59-2.56h-2.59l-51.71.06H85.83l.1,2.65,3.86,99,.1,2.52,2.52-.07L139,138.1l2.45-.07,0-2.45,1.25-97.76,0-2.59Z"/><path class="cls-3" d="M111.45,66.57c.08-.13,0-.32-.12-.22C107.74,69.83,87.12,90.49,99.5,137l25.89-.2S89.42,103.42,111.45,66.57Z"/><path class="cls-3" d="M130.83,52a1.87,1.87,0,0,0-1.17,0c-.25.1-.35.19-.34.21a6.39,6.39,0,0,0-1.4.58c-.87.41-2.23,1.07-3.79,1.85a.12.12,0,0,1-.13,0l-.16-.12-.51-.37-1.07-.76-2.35-1.69-2.64-1.87-.72-.51a1,1,0,0,0-.65-.15,1.05,1.05,0,0,0-.3.1l-.18.09-1.58.82a.73.73,0,0,0-.22,1.1,3.49,3.49,0,0,0,.46.44l.31.28,1.29,1.13,2.68,2.35,1.34,1.18s0,.05,0,.06l-.59.3L116,58.7l-1.63-.76a1.25,1.25,0,0,0-.79-.16A2.11,2.11,0,0,0,113,58l-1.07.56a.77.77,0,0,0-.38.77,1,1,0,0,0,.54.78l1,.69,1.83,1.25c0,.91,0,1.87,0,2.83v.79a.91.91,0,0,0,.61.88.69.69,0,0,0,.51,0c.16-.07.4-.21.45-.23l1.09-.58a1,1,0,0,0,.35-.42,1.07,1.07,0,0,0,.09-.27l0-.16.11-.62.2-1.17,2.62-1.4,1.05-.55a0,0,0,0,1,0,0l0,.13.1.88q.4,3.56.79,6.85a.82.82,0,0,0,1,.74l.87-.46.7-.37c.13-.08.2-.1.39-.22a1,1,0,0,0,.37-.56,1.39,1.39,0,0,0,0-.32v-.64c0-.28,0-.55,0-.83,0-.55,0-1.1,0-1.63,0-2.12,0-4.1-.08-5.91a.1.1,0,0,1,.07-.11l.38-.21.75-.4,1.42-.78L131.34,56l.22-.12v0a2.08,2.08,0,0,0,.7-2.32A2.19,2.19,0,0,0,130.83,52Z"/></g></g></svg>